<svg xmlns="http://www.w3.org/2000/svg" xmlns:xlink="http://www.w3.org/1999/xlink" width="1440" zoomAndPan="magnify" viewBox="0 0 1080 89.999999" height="120" preserveAspectRatio="xMidYMid meet" version="1.0"><defs><g/><clipPath id="806b57db5a"><path d="M 584.558594 37.671875 L 587.882812 37.671875 L 587.882812 40.925781 L 584.558594 40.925781 Z M 584.558594 37.671875 " clip-rule="nonzero"/></clipPath><clipPath id="27f5bc4be9"><path d="M 0 12.675781 L 754.949219 12.675781 L 754.949219 83.277344 L 0 83.277344 Z M 0 12.675781 " clip-rule="nonzero"/></clipPath><clipPath id="e9af0be595"><path d="M 735.179688 12.621094 L 1080 12.621094 L 1080 83.027344 L 735.179688 83.027344 Z M 735.179688 12.621094 " clip-rule="nonzero"/></clipPath></defs><g clip-path="url(#806b57db5a)"><path fill="#d7e9f8" d="M 584.558594 37.671875 L 587.882812 37.671875 L 587.882812 40.925781 L 584.558594 40.925781 Z M 584.558594 37.671875 " fill-opacity="1" fill-rule="nonzero"/></g><rect x="-108" width="1296" fill="#d7e9f8" y="-9" height="107.999999" fill-opacity="1"/><g clip-path="url(#27f5bc4be9)"><path fill="#13294b" d="M 0 12.675781 L 754.949219 12.675781 L 754.949219 83.277344 L 0 83.277344 Z M 0 12.675781 " fill-opacity="1" fill-rule="nonzero"/></g><path stroke-linecap="round" transform="matrix(0.75, 0, 0, 0.75, 156.682644, 65.138437)" fill="none" stroke-linejoin="miter" d="M 1.501266 1.497709 L 24.386684 1.497709 " stroke="#d7e9f8" stroke-width="3" stroke-opacity="1" stroke-miterlimit="4"/><g clip-path="url(#e9af0be595)"><path fill="#ffffff" d="M 735.179688 12.621094 L 1094.261719 12.621094 L 1094.261719 83.027344 L 735.179688 83.027344 Z M 735.179688 12.621094 " fill-opacity="1" fill-rule="nonzero"/></g><path stroke-linecap="butt" transform="matrix(0.0848287, -0.745187, 0.745187, 0.0848287, 721.309888, 88.058714)" fill="none" stroke-linejoin="miter" d="M -0.00189348 8.500956 L 116.196655 8.498943 " stroke="#d7e9f8" stroke-width="17" stroke-opacity="1" stroke-miterlimit="4"/><g fill="#ffffff" fill-opacity="1"><g transform="translate(140.182645, 53.498419)"><g><path d="M 14.765625 -21.21875 L 19.3125 -21.21875 L 12.109375 0 L 7.203125 0 L 0 -21.21875 L 4.546875 -21.21875 L 8.53125 -8.59375 C 8.75 -7.84375 8.976562 -6.972656 9.21875 -5.984375 C 9.457031 -4.992188 9.609375 -4.304688 9.671875 -3.921875 C 9.773438 -4.804688 10.132812 -6.363281 10.75 -8.59375 Z M 14.765625 -21.21875 "/></g></g></g><g fill="#ffffff" fill-opacity="1"><g transform="translate(159.494218, 53.498419)"><g><path d="M 2.671875 0 L 2.671875 -21.21875 L 7.171875 -21.21875 L 7.171875 0 Z M 2.671875 0 "/></g></g></g><g fill="#ffffff" fill-opacity="1"><g transform="translate(169.331366, 53.498419)"><g><path d="M 15.1875 -5.890625 C 15.1875 -3.972656 14.5 -2.460938 13.125 -1.359375 C 11.75 -0.253906 9.832031 0.296875 7.375 0.296875 C 5.101562 0.296875 3.097656 -0.128906 1.359375 -0.984375 L 1.359375 -5.171875 C 2.796875 -4.523438 4.007812 -4.070312 5 -3.8125 C 5.988281 -3.550781 6.894531 -3.421875 7.71875 -3.421875 C 8.707031 -3.421875 9.460938 -3.609375 9.984375 -3.984375 C 10.515625 -4.367188 10.78125 -4.929688 10.78125 -5.671875 C 10.78125 -6.085938 10.660156 -6.457031 10.421875 -6.78125 C 10.191406 -7.101562 9.851562 -7.414062 9.40625 -7.71875 C 8.957031 -8.019531 8.039062 -8.5 6.65625 -9.15625 C 5.363281 -9.769531 4.390625 -10.351562 3.734375 -10.90625 C 3.085938 -11.46875 2.570312 -12.117188 2.1875 -12.859375 C 1.800781 -13.609375 1.609375 -14.484375 1.609375 -15.484375 C 1.609375 -17.359375 2.242188 -18.832031 3.515625 -19.90625 C 4.785156 -20.976562 6.546875 -21.515625 8.796875 -21.515625 C 9.898438 -21.515625 10.953125 -21.382812 11.953125 -21.125 C 12.953125 -20.863281 14 -20.5 15.09375 -20.03125 L 13.640625 -16.53125 C 12.503906 -16.988281 11.566406 -17.3125 10.828125 -17.5 C 10.085938 -17.6875 9.363281 -17.78125 8.65625 -17.78125 C 7.800781 -17.78125 7.144531 -17.582031 6.6875 -17.1875 C 6.226562 -16.789062 6 -16.269531 6 -15.625 C 6 -15.226562 6.09375 -14.878906 6.28125 -14.578125 C 6.46875 -14.285156 6.757812 -14.003906 7.15625 -13.734375 C 7.5625 -13.460938 8.515625 -12.96875 10.015625 -12.25 C 11.992188 -11.300781 13.347656 -10.347656 14.078125 -9.390625 C 14.816406 -8.441406 15.1875 -7.273438 15.1875 -5.890625 Z M 15.1875 -5.890625 "/></g></g></g><g fill="#ffffff" fill-opacity="1"><g transform="translate(185.697595, 53.498419)"><g><path d="M 2.671875 0 L 2.671875 -21.21875 L 7.171875 -21.21875 L 7.171875 0 Z M 2.671875 0 "/></g></g></g><g fill="#ffffff" fill-opacity="1"><g transform="translate(195.534744, 53.498419)"><g><path d="M 10.859375 0 L 6.359375 0 L 6.359375 -17.46875 L 0.59375 -17.46875 L 0.59375 -21.21875 L 16.609375 -21.21875 L 16.609375 -17.46875 L 10.859375 -17.46875 Z M 10.859375 0 "/></g></g></g><g fill="#ffffff" fill-opacity="1"><g transform="translate(212.742499, 53.498419)"><g><path d="M 15.65625 0 L 14.125 -5.046875 L 6.390625 -5.046875 L 4.84375 0 L 0 0 L 7.484375 -21.296875 L 12.984375 -21.296875 L 20.5 0 Z M 13.046875 -8.828125 C 11.617188 -13.398438 10.816406 -15.984375 10.640625 -16.578125 C 10.460938 -17.179688 10.335938 -17.660156 10.265625 -18.015625 C 9.941406 -16.773438 9.023438 -13.710938 7.515625 -8.828125 Z M 13.046875 -8.828125 "/></g></g></g><g fill="#ffffff" fill-opacity="1"><g transform="translate(233.243816, 53.498419)"><g><path d="M 15.1875 -5.890625 C 15.1875 -3.972656 14.5 -2.460938 13.125 -1.359375 C 11.75 -0.253906 9.832031 0.296875 7.375 0.296875 C 5.101562 0.296875 3.097656 -0.128906 1.359375 -0.984375 L 1.359375 -5.171875 C 2.796875 -4.523438 4.007812 -4.070312 5 -3.8125 C 5.988281 -3.550781 6.894531 -3.421875 7.71875 -3.421875 C 8.707031 -3.421875 9.460938 -3.609375 9.984375 -3.984375 C 10.515625 -4.367188 10.78125 -4.929688 10.78125 -5.671875 C 10.78125 -6.085938 10.660156 -6.457031 10.421875 -6.78125 C 10.191406 -7.101562 9.851562 -7.414062 9.40625 -7.71875 C 8.957031 -8.019531 8.039062 -8.5 6.65625 -9.15625 C 5.363281 -9.769531 4.390625 -10.351562 3.734375 -10.90625 C 3.085938 -11.46875 2.570312 -12.117188 2.1875 -12.859375 C 1.800781 -13.609375 1.609375 -14.484375 1.609375 -15.484375 C 1.609375 -17.359375 2.242188 -18.832031 3.515625 -19.90625 C 4.785156 -20.976562 6.546875 -21.515625 8.796875 -21.515625 C 9.898438 -21.515625 10.953125 -21.382812 11.953125 -21.125 C 12.953125 -20.863281 14 -20.5 15.09375 -20.03125 L 13.640625 -16.53125 C 12.503906 -16.988281 11.566406 -17.3125 10.828125 -17.5 C 10.085938 -17.6875 9.363281 -17.78125 8.65625 -17.78125 C 7.800781 -17.78125 7.144531 -17.582031 6.6875 -17.1875 C 6.226562 -16.789062 6 -16.269531 6 -15.625 C 6 -15.226562 6.09375 -14.878906 6.28125 -14.578125 C 6.46875 -14.285156 6.757812 -14.003906 7.15625 -13.734375 C 7.5625 -13.460938 8.515625 -12.96875 10.015625 -12.25 C 11.992188 -11.300781 13.347656 -10.347656 14.078125 -9.390625 C 14.816406 -8.441406 15.1875 -7.273438 15.1875 -5.890625 Z M 15.1875 -5.890625 "/></g></g></g><g fill="#ffffff" fill-opacity="1"><g transform="translate(184.355576, 69.666379)"><g><path d="M 1.078125 -7.15625 L 2.09375 -7.15625 L 2.09375 0 L 1.078125 0 Z M 1.078125 -7.15625 "/></g></g></g><g fill="#ffffff" fill-opacity="1"><g transform="translate(189.849335, 69.666379)"><g><path d="M 7.21875 -7.15625 L 7.21875 0 L 6.390625 0 L 2.09375 -5.328125 L 2.09375 0 L 1.078125 0 L 1.078125 -7.15625 L 1.90625 -7.15625 L 6.203125 -1.8125 L 6.203125 -7.15625 Z M 7.21875 -7.15625 "/></g></g></g><g fill="#ffffff" fill-opacity="1"><g transform="translate(200.467699, 69.666379)"><g><path d="M 2.09375 -6.265625 L 2.09375 -3.765625 L 5.6875 -3.765625 L 5.6875 -2.890625 L 2.09375 -2.890625 L 2.09375 0 L 1.078125 0 L 1.078125 -7.15625 L 6.125 -7.15625 L 6.125 -6.265625 Z M 2.09375 -6.265625 "/></g></g></g><g fill="#ffffff" fill-opacity="1"><g transform="translate(209.279172, 69.666379)"><g><path d="M 4.296875 0.078125 C 3.578125 0.078125 2.925781 -0.078125 2.34375 -0.390625 C 1.769531 -0.710938 1.316406 -1.148438 0.984375 -1.703125 C 0.648438 -2.265625 0.484375 -2.890625 0.484375 -3.578125 C 0.484375 -4.265625 0.648438 -4.882812 0.984375 -5.4375 C 1.316406 -6 1.769531 -6.4375 2.34375 -6.75 C 2.925781 -7.070312 3.578125 -7.234375 4.296875 -7.234375 C 5.015625 -7.234375 5.660156 -7.070312 6.234375 -6.75 C 6.816406 -6.4375 7.269531 -6.003906 7.59375 -5.453125 C 7.925781 -4.898438 8.09375 -4.273438 8.09375 -3.578125 C 8.09375 -2.878906 7.925781 -2.253906 7.59375 -1.703125 C 7.269531 -1.148438 6.816406 -0.710938 6.234375 -0.390625 C 5.660156 -0.078125 5.015625 0.078125 4.296875 0.078125 Z M 4.296875 -0.828125 C 4.828125 -0.828125 5.300781 -0.945312 5.71875 -1.1875 C 6.132812 -1.425781 6.460938 -1.753906 6.703125 -2.171875 C 6.953125 -2.585938 7.078125 -3.054688 7.078125 -3.578125 C 7.078125 -4.097656 6.953125 -4.566406 6.703125 -4.984375 C 6.460938 -5.398438 6.132812 -5.726562 5.71875 -5.96875 C 5.300781 -6.207031 4.828125 -6.328125 4.296875 -6.328125 C 3.773438 -6.328125 3.300781 -6.207031 2.875 -5.96875 C 2.445312 -5.726562 2.113281 -5.398438 1.875 -4.984375 C 1.632812 -4.566406 1.515625 -4.097656 1.515625 -3.578125 C 1.515625 -3.054688 1.632812 -2.585938 1.875 -2.171875 C 2.113281 -1.753906 2.445312 -1.425781 2.875 -1.1875 C 3.300781 -0.945312 3.773438 -0.828125 4.296875 -0.828125 Z M 4.296875 -0.828125 "/></g></g></g><g fill="#ffffff" fill-opacity="1"><g transform="translate(220.183368, 69.666379)"><g><path d="M 5.859375 0 L 4.3125 -2.203125 C 4.125 -2.179688 3.972656 -2.171875 3.859375 -2.171875 L 2.09375 -2.171875 L 2.09375 0 L 1.078125 0 L 1.078125 -7.15625 L 3.859375 -7.15625 C 4.785156 -7.15625 5.515625 -6.929688 6.046875 -6.484375 C 6.578125 -6.046875 6.84375 -5.4375 6.84375 -4.65625 C 6.84375 -4.101562 6.707031 -3.632812 6.4375 -3.25 C 6.164062 -2.863281 5.773438 -2.582031 5.265625 -2.40625 L 6.96875 0 Z M 3.828125 -3.046875 C 4.472656 -3.046875 4.96875 -3.1875 5.3125 -3.46875 C 5.65625 -3.75 5.828125 -4.144531 5.828125 -4.65625 C 5.828125 -5.175781 5.65625 -5.570312 5.3125 -5.84375 C 4.96875 -6.125 4.472656 -6.265625 3.828125 -6.265625 L 2.09375 -6.265625 L 2.09375 -3.046875 Z M 3.828125 -3.046875 "/></g></g></g><g fill="#ffffff" fill-opacity="1"><g transform="translate(229.93402, 69.666379)"><g><path d="M 7.703125 0 L 7.6875 -5.21875 L 5.109375 -0.875 L 4.640625 -0.875 L 2.046875 -5.1875 L 2.046875 0 L 1.078125 0 L 1.078125 -7.15625 L 1.90625 -7.15625 L 4.890625 -2.125 L 7.84375 -7.15625 L 8.671875 -7.15625 L 8.6875 0 Z M 7.703125 0 "/></g></g></g><g fill="#ffffff" fill-opacity="1"><g transform="translate(242.012176, 69.666379)"><g><path d="M 5.625 -1.78125 L 1.828125 -1.78125 L 1.046875 0 L -0.015625 0 L 3.234375 -7.15625 L 4.234375 -7.15625 L 7.484375 0 L 6.421875 0 Z M 5.265625 -2.609375 L 3.734375 -6.109375 L 2.1875 -2.609375 Z M 5.265625 -2.609375 "/></g></g></g><g fill="#ffffff" fill-opacity="1"><g transform="translate(251.813864, 69.666379)"><g><path d="M 2.5 -6.265625 L 0.046875 -6.265625 L 0.046875 -7.15625 L 5.953125 -7.15625 L 5.953125 -6.265625 L 3.5 -6.265625 L 3.5 0 L 2.5 0 Z M 2.5 -6.265625 "/></g></g></g><g fill="#ffffff" fill-opacity="1"><g transform="translate(260.135346, 69.666379)"><g><path d="M 1.078125 -7.15625 L 2.09375 -7.15625 L 2.09375 0 L 1.078125 0 Z M 1.078125 -7.15625 "/></g></g></g><g fill="#ffffff" fill-opacity="1"><g transform="translate(265.629106, 69.666379)"><g><path d="M 7.28125 -7.15625 L 4.15625 0 L 3.140625 0 L -0.015625 -7.15625 L 1.09375 -7.15625 L 3.671875 -1.28125 L 6.265625 -7.15625 Z M 7.28125 -7.15625 "/></g></g></g><g fill="#ffffff" fill-opacity="1"><g transform="translate(275.226624, 69.666379)"><g><path d="M 4.296875 0.078125 C 3.578125 0.078125 2.925781 -0.078125 2.34375 -0.390625 C 1.769531 -0.710938 1.316406 -1.148438 0.984375 -1.703125 C 0.648438 -2.265625 0.484375 -2.890625 0.484375 -3.578125 C 0.484375 -4.265625 0.648438 -4.882812 0.984375 -5.4375 C 1.316406 -6 1.769531 -6.4375 2.34375 -6.75 C 2.925781 -7.070312 3.578125 -7.234375 4.296875 -7.234375 C 5.015625 -7.234375 5.660156 -7.070312 6.234375 -6.75 C 6.816406 -6.4375 7.269531 -6.003906 7.59375 -5.453125 C 7.925781 -4.898438 8.09375 -4.273438 8.09375 -3.578125 C 8.09375 -2.878906 7.925781 -2.253906 7.59375 -1.703125 C 7.269531 -1.148438 6.816406 -0.710938 6.234375 -0.390625 C 5.660156 -0.078125 5.015625 0.078125 4.296875 0.078125 Z M 4.296875 -0.828125 C 4.828125 -0.828125 5.300781 -0.945312 5.71875 -1.1875 C 6.132812 -1.425781 6.460938 -1.753906 6.703125 -2.171875 C 6.953125 -2.585938 7.078125 -3.054688 7.078125 -3.578125 C 7.078125 -4.097656 6.953125 -4.566406 6.703125 -4.984375 C 6.460938 -5.398438 6.132812 -5.726562 5.71875 -5.96875 C 5.300781 -6.207031 4.828125 -6.328125 4.296875 -6.328125 C 3.773438 -6.328125 3.300781 -6.207031 2.875 -5.96875 C 2.445312 -5.726562 2.113281 -5.398438 1.875 -4.984375 C 1.632812 -4.566406 1.515625 -4.097656 1.515625 -3.578125 C 1.515625 -3.054688 1.632812 -2.585938 1.875 -2.171875 C 2.113281 -1.753906 2.445312 -1.425781 2.875 -1.1875 C 3.300781 -0.945312 3.773438 -0.828125 4.296875 -0.828125 Z M 4.296875 -0.828125 "/></g></g></g><g fill="#ffffff" fill-opacity="1"><g transform="translate(286.13082, 69.666379)"><g/></g></g><g fill="#ffffff" fill-opacity="1"><g transform="translate(291.206038, 69.666379)"><g><path d="M 6.265625 -0.890625 L 6.265625 0 L 1.078125 0 L 1.078125 -7.15625 L 6.125 -7.15625 L 6.125 -6.265625 L 2.09375 -6.265625 L 2.09375 -4.0625 L 5.6875 -4.0625 L 5.6875 -3.203125 L 2.09375 -3.203125 L 2.09375 -0.890625 Z M 6.265625 -0.890625 "/></g></g></g><g fill="#ffffff" fill-opacity="1"><g transform="translate(300.374806, 69.666379)"><g/></g></g><g fill="#ffffff" fill-opacity="1"><g transform="translate(305.450024, 69.666379)"><g><path d="M 4.265625 0.078125 C 3.554688 0.078125 2.910156 -0.078125 2.328125 -0.390625 C 1.753906 -0.710938 1.300781 -1.148438 0.96875 -1.703125 C 0.644531 -2.253906 0.484375 -2.878906 0.484375 -3.578125 C 0.484375 -4.273438 0.644531 -4.898438 0.96875 -5.453125 C 1.300781 -6.003906 1.753906 -6.4375 2.328125 -6.75 C 2.910156 -7.070312 3.5625 -7.234375 4.28125 -7.234375 C 4.84375 -7.234375 5.351562 -7.140625 5.8125 -6.953125 C 6.28125 -6.765625 6.675781 -6.488281 7 -6.125 L 6.328125 -5.484375 C 5.796875 -6.046875 5.128906 -6.328125 4.328125 -6.328125 C 3.796875 -6.328125 3.3125 -6.207031 2.875 -5.96875 C 2.445312 -5.726562 2.113281 -5.398438 1.875 -4.984375 C 1.632812 -4.566406 1.515625 -4.097656 1.515625 -3.578125 C 1.515625 -3.054688 1.632812 -2.585938 1.875 -2.171875 C 2.113281 -1.753906 2.445312 -1.425781 2.875 -1.1875 C 3.3125 -0.945312 3.796875 -0.828125 4.328125 -0.828125 C 5.117188 -0.828125 5.785156 -1.113281 6.328125 -1.6875 L 7 -1.046875 C 6.675781 -0.671875 6.28125 -0.390625 5.8125 -0.203125 C 5.34375 -0.015625 4.828125 0.078125 4.265625 0.078125 Z M 4.265625 0.078125 "/></g></g></g><g fill="#ffffff" fill-opacity="1"><g transform="translate(315.159843, 69.666379)"><g><path d="M 4.296875 0.078125 C 3.578125 0.078125 2.925781 -0.078125 2.34375 -0.390625 C 1.769531 -0.710938 1.316406 -1.148438 0.984375 -1.703125 C 0.648438 -2.265625 0.484375 -2.890625 0.484375 -3.578125 C 0.484375 -4.265625 0.648438 -4.882812 0.984375 -5.4375 C 1.316406 -6 1.769531 -6.4375 2.34375 -6.75 C 2.925781 -7.070312 3.578125 -7.234375 4.296875 -7.234375 C 5.015625 -7.234375 5.660156 -7.070312 6.234375 -6.75 C 6.816406 -6.4375 7.269531 -6.003906 7.59375 -5.453125 C 7.925781 -4.898438 8.09375 -4.273438 8.09375 -3.578125 C 8.09375 -2.878906 7.925781 -2.253906 7.59375 -1.703125 C 7.269531 -1.148438 6.816406 -0.710938 6.234375 -0.390625 C 5.660156 -0.078125 5.015625 0.078125 4.296875 0.078125 Z M 4.296875 -0.828125 C 4.828125 -0.828125 5.300781 -0.945312 5.71875 -1.1875 C 6.132812 -1.425781 6.460938 -1.753906 6.703125 -2.171875 C 6.953125 -2.585938 7.078125 -3.054688 7.078125 -3.578125 C 7.078125 -4.097656 6.953125 -4.566406 6.703125 -4.984375 C 6.460938 -5.398438 6.132812 -5.726562 5.71875 -5.96875 C 5.300781 -6.207031 4.828125 -6.328125 4.296875 -6.328125 C 3.773438 -6.328125 3.300781 -6.207031 2.875 -5.96875 C 2.445312 -5.726562 2.113281 -5.398438 1.875 -4.984375 C 1.632812 -4.566406 1.515625 -4.097656 1.515625 -3.578125 C 1.515625 -3.054688 1.632812 -2.585938 1.875 -2.171875 C 2.113281 -1.753906 2.445312 -1.425781 2.875 -1.1875 C 3.300781 -0.945312 3.773438 -0.828125 4.296875 -0.828125 Z M 4.296875 -0.828125 "/></g></g></g><g fill="#ffffff" fill-opacity="1"><g transform="translate(326.064039, 69.666379)"><g><path d="M 7.21875 -7.15625 L 7.21875 0 L 6.390625 0 L 2.09375 -5.328125 L 2.09375 0 L 1.078125 0 L 1.078125 -7.15625 L 1.90625 -7.15625 L 6.203125 -1.8125 L 6.203125 -7.15625 Z M 7.21875 -7.15625 "/></g></g></g><g fill="#ffffff" fill-opacity="1"><g transform="translate(336.682405, 69.666379)"><g><path d="M 3.15625 0.078125 C 2.613281 0.078125 2.09375 -0.00390625 1.59375 -0.171875 C 1.09375 -0.335938 0.703125 -0.550781 0.421875 -0.8125 L 0.796875 -1.609375 C 1.066406 -1.367188 1.414062 -1.171875 1.84375 -1.015625 C 2.269531 -0.859375 2.707031 -0.78125 3.15625 -0.78125 C 3.75 -0.78125 4.191406 -0.878906 4.484375 -1.078125 C 4.773438 -1.285156 4.921875 -1.554688 4.921875 -1.890625 C 4.921875 -2.140625 4.835938 -2.335938 4.671875 -2.484375 C 4.515625 -2.640625 4.316406 -2.757812 4.078125 -2.84375 C 3.847656 -2.925781 3.519531 -3.015625 3.09375 -3.109375 C 2.550781 -3.242188 2.113281 -3.375 1.78125 -3.5 C 1.457031 -3.632812 1.175781 -3.832031 0.9375 -4.09375 C 0.707031 -4.363281 0.59375 -4.726562 0.59375 -5.1875 C 0.59375 -5.570312 0.691406 -5.914062 0.890625 -6.21875 C 1.097656 -6.53125 1.40625 -6.773438 1.8125 -6.953125 C 2.21875 -7.140625 2.722656 -7.234375 3.328125 -7.234375 C 3.753906 -7.234375 4.171875 -7.175781 4.578125 -7.0625 C 4.984375 -6.957031 5.332031 -6.800781 5.625 -6.59375 L 5.296875 -5.78125 C 4.992188 -5.96875 4.671875 -6.109375 4.328125 -6.203125 C 3.992188 -6.304688 3.660156 -6.359375 3.328125 -6.359375 C 2.753906 -6.359375 2.320312 -6.253906 2.03125 -6.046875 C 1.738281 -5.835938 1.59375 -5.566406 1.59375 -5.234375 C 1.59375 -4.984375 1.671875 -4.78125 1.828125 -4.625 C 1.992188 -4.476562 2.195312 -4.363281 2.4375 -4.28125 C 2.6875 -4.195312 3.019531 -4.101562 3.4375 -4 C 3.96875 -3.875 4.394531 -3.742188 4.71875 -3.609375 C 5.050781 -3.484375 5.332031 -3.285156 5.5625 -3.015625 C 5.800781 -2.753906 5.921875 -2.398438 5.921875 -1.953125 C 5.921875 -1.578125 5.816406 -1.234375 5.609375 -0.921875 C 5.410156 -0.609375 5.101562 -0.363281 4.6875 -0.1875 C 4.269531 -0.0078125 3.757812 0.078125 3.15625 0.078125 Z M 3.15625 0.078125 "/></g></g></g><g fill="#ffffff" fill-opacity="1"><g transform="translate(345.350965, 69.666379)"><g><path d="M 4.03125 0.078125 C 3.082031 0.078125 2.34375 -0.191406 1.8125 -0.734375 C 1.28125 -1.273438 1.015625 -2.0625 1.015625 -3.09375 L 1.015625 -7.15625 L 2.03125 -7.15625 L 2.03125 -3.125 C 2.03125 -1.59375 2.703125 -0.828125 4.046875 -0.828125 C 4.703125 -0.828125 5.203125 -1.015625 5.546875 -1.390625 C 5.890625 -1.773438 6.0625 -2.351562 6.0625 -3.125 L 6.0625 -7.15625 L 7.0625 -7.15625 L 7.0625 -3.09375 C 7.0625 -2.0625 6.796875 -1.273438 6.265625 -0.734375 C 5.734375 -0.191406 4.988281 0.078125 4.03125 0.078125 Z M 4.03125 0.078125 "/></g></g></g><g fill="#ffffff" fill-opacity="1"><g transform="translate(355.754954, 69.666379)"><g><path d="M 1.078125 -7.15625 L 2.09375 -7.15625 L 2.09375 -0.890625 L 5.96875 -0.890625 L 5.96875 0 L 1.078125 0 Z M 1.078125 -7.15625 "/></g></g></g><g fill="#ffffff" fill-opacity="1"><g transform="translate(364.147877, 69.666379)"><g><path d="M 2.5 -6.265625 L 0.046875 -6.265625 L 0.046875 -7.15625 L 5.953125 -7.15625 L 5.953125 -6.265625 L 3.5 -6.265625 L 3.5 0 L 2.5 0 Z M 2.5 -6.265625 "/></g></g></g><g fill="#ffffff" fill-opacity="1"><g transform="translate(372.469358, 69.666379)"><g><path d="M 5.625 -1.78125 L 1.828125 -1.78125 L 1.046875 0 L -0.015625 0 L 3.234375 -7.15625 L 4.234375 -7.15625 L 7.484375 0 L 6.421875 0 Z M 5.265625 -2.609375 L 3.734375 -6.109375 L 2.1875 -2.609375 Z M 5.265625 -2.609375 "/></g></g></g><path stroke-linecap="butt" transform="matrix(0.0848287, -0.745187, 0.745187, 0.0848287, 743.532855, 84.739721)" fill="none" stroke-linejoin="miter" d="M -0.000192831 8.500346 L 116.198356 8.498333 " stroke="#d7e9f8" stroke-width="17" stroke-opacity="1" stroke-miterlimit="4"/><path stroke-linecap="butt" transform="matrix(0.0848287, -0.745187, 0.745187, 0.0848287, 732.421383, 90.298056)" fill="none" stroke-linejoin="miter" d="M -0.000808676 8.497987 L 116.198329 8.501149 " stroke="#d7e9f8" stroke-width="17" stroke-opacity="1" stroke-miterlimit="4"/><path stroke-linecap="butt" transform="matrix(0.0848287, -0.745187, 0.745187, 0.0848287, 754.94651, 88.553868)" fill="none" stroke-linejoin="miter" d="M 0.00205047 8.500637 L 116.200599 8.498624 " stroke="#d7e9f8" stroke-width="17" stroke-opacity="1" stroke-miterlimit="4"/><path stroke-linecap="butt" transform="matrix(0.0848287, -0.745187, 0.745187, 0.0848287, 766.20911, 90.683332)" fill="none" stroke-linejoin="miter" d="M -0.00251745 8.499975 L 116.196031 8.497962 " stroke="#d7e9f8" stroke-width="17" stroke-opacity="1" stroke-miterlimit="4"/></svg>