<svg xmlns="http://www.w3.org/2000/svg" xmlns:xlink="http://www.w3.org/1999/xlink" width="1440" zoomAndPan="magnify" viewBox="0 0 1080 89.999999" height="120" preserveAspectRatio="xMidYMid meet" version="1.0"><defs><g/><clipPath id="ad4a31e900"><path d="M 584.558594 37.671875 L 587.882812 37.671875 L 587.882812 40.925781 L 584.558594 40.925781 Z M 584.558594 37.671875 " clip-rule="nonzero"/></clipPath><clipPath id="a55e60328e"><path d="M 0 12.675781 L 754.949219 12.675781 L 754.949219 83.277344 L 0 83.277344 Z M 0 12.675781 " clip-rule="nonzero"/></clipPath><clipPath id="e3a7b29c5d"><path d="M 735.179688 12.621094 L 1080 12.621094 L 1080 83.027344 L 735.179688 83.027344 Z M 735.179688 12.621094 " clip-rule="nonzero"/></clipPath></defs><g clip-path="url(#ad4a31e900)"><path fill="#d7e9f8" d="M 584.558594 37.671875 L 587.882812 37.671875 L 587.882812 40.925781 L 584.558594 40.925781 Z M 584.558594 37.671875 " fill-opacity="1" fill-rule="nonzero"/></g><rect x="-108" width="1296" fill="#d7e9f8" y="-9" height="107.999999" fill-opacity="1"/><g clip-path="url(#a55e60328e)"><path fill="#13294b" d="M 0 12.675781 L 754.949219 12.675781 L 754.949219 83.277344 L 0 83.277344 Z M 0 12.675781 " fill-opacity="1" fill-rule="nonzero"/></g><path stroke-linecap="round" transform="matrix(0.75, 0, 0, 0.75, 156.682644, 65.138437)" fill="none" stroke-linejoin="miter" d="M 1.501266 1.497709 L 24.386684 1.497709 " stroke="#d7e9f8" stroke-width="3" stroke-opacity="1" stroke-miterlimit="4"/><g clip-path="url(#e3a7b29c5d)"><path fill="#ffffff" d="M 735.179688 12.621094 L 1094.261719 12.621094 L 1094.261719 83.027344 L 735.179688 83.027344 Z M 735.179688 12.621094 " fill-opacity="1" fill-rule="nonzero"/></g><path stroke-linecap="butt" transform="matrix(0.0848287, -0.745187, 0.745187, 0.0848287, 721.309888, 88.058714)" fill="none" stroke-linejoin="miter" d="M -0.00189348 8.500956 L 116.196655 8.498943 " stroke="#d7e9f8" stroke-width="17" stroke-opacity="1" stroke-miterlimit="4"/><g fill="#ffffff" fill-opacity="1"><g transform="translate(112.614038, 53.747783)"><g><path d="M 14.765625 -21.21875 L 19.3125 -21.21875 L 12.109375 0 L 7.203125 0 L 0 -21.21875 L 4.546875 -21.21875 L 8.53125 -8.59375 C 8.75 -7.84375 8.976562 -6.972656 9.21875 -5.984375 C 9.457031 -4.992188 9.609375 -4.304688 9.671875 -3.921875 C 9.773438 -4.804688 10.132812 -6.363281 10.75 -8.59375 Z M 14.765625 -21.21875 "/></g></g></g><g fill="#ffffff" fill-opacity="1"><g transform="translate(131.925611, 53.747783)"><g><path d="M 2.671875 0 L 2.671875 -21.21875 L 7.171875 -21.21875 L 7.171875 0 Z M 2.671875 0 "/></g></g></g><g fill="#ffffff" fill-opacity="1"><g transform="translate(141.762759, 53.747783)"><g><path d="M 15.1875 -5.890625 C 15.1875 -3.972656 14.5 -2.460938 13.125 -1.359375 C 11.75 -0.253906 9.832031 0.296875 7.375 0.296875 C 5.101562 0.296875 3.097656 -0.128906 1.359375 -0.984375 L 1.359375 -5.171875 C 2.796875 -4.523438 4.007812 -4.070312 5 -3.8125 C 5.988281 -3.550781 6.894531 -3.421875 7.71875 -3.421875 C 8.707031 -3.421875 9.460938 -3.609375 9.984375 -3.984375 C 10.515625 -4.367188 10.78125 -4.929688 10.78125 -5.671875 C 10.78125 -6.085938 10.660156 -6.457031 10.421875 -6.78125 C 10.191406 -7.101562 9.851562 -7.414062 9.40625 -7.71875 C 8.957031 -8.019531 8.039062 -8.5 6.65625 -9.15625 C 5.363281 -9.769531 4.390625 -10.351562 3.734375 -10.90625 C 3.085938 -11.46875 2.570312 -12.117188 2.1875 -12.859375 C 1.800781 -13.609375 1.609375 -14.484375 1.609375 -15.484375 C 1.609375 -17.359375 2.242188 -18.832031 3.515625 -19.90625 C 4.785156 -20.976562 6.546875 -21.515625 8.796875 -21.515625 C 9.898438 -21.515625 10.953125 -21.382812 11.953125 -21.125 C 12.953125 -20.863281 14 -20.5 15.09375 -20.03125 L 13.640625 -16.53125 C 12.503906 -16.988281 11.566406 -17.3125 10.828125 -17.5 C 10.085938 -17.6875 9.363281 -17.78125 8.65625 -17.78125 C 7.800781 -17.78125 7.144531 -17.582031 6.6875 -17.1875 C 6.226562 -16.789062 6 -16.269531 6 -15.625 C 6 -15.226562 6.09375 -14.878906 6.28125 -14.578125 C 6.46875 -14.285156 6.757812 -14.003906 7.15625 -13.734375 C 7.5625 -13.460938 8.515625 -12.96875 10.015625 -12.25 C 11.992188 -11.300781 13.347656 -10.347656 14.078125 -9.390625 C 14.816406 -8.441406 15.1875 -7.273438 15.1875 -5.890625 Z M 15.1875 -5.890625 "/></g></g></g><g fill="#ffffff" fill-opacity="1"><g transform="translate(158.128989, 53.747783)"><g><path d="M 2.671875 0 L 2.671875 -21.21875 L 7.171875 -21.21875 L 7.171875 0 Z M 2.671875 0 "/></g></g></g><g fill="#ffffff" fill-opacity="1"><g transform="translate(167.966137, 53.747783)"><g><path d="M 10.859375 0 L 6.359375 0 L 6.359375 -17.46875 L 0.59375 -17.46875 L 0.59375 -21.21875 L 16.609375 -21.21875 L 16.609375 -17.46875 L 10.859375 -17.46875 Z M 10.859375 0 "/></g></g></g><g fill="#ffffff" fill-opacity="1"><g transform="translate(185.173893, 53.747783)"><g><path d="M 15.65625 0 L 14.125 -5.046875 L 6.390625 -5.046875 L 4.84375 0 L 0 0 L 7.484375 -21.296875 L 12.984375 -21.296875 L 20.5 0 Z M 13.046875 -8.828125 C 11.617188 -13.398438 10.816406 -15.984375 10.640625 -16.578125 C 10.460938 -17.179688 10.335938 -17.660156 10.265625 -18.015625 C 9.941406 -16.773438 9.023438 -13.710938 7.515625 -8.828125 Z M 13.046875 -8.828125 "/></g></g></g><g fill="#ffffff" fill-opacity="1"><g transform="translate(205.675209, 53.747783)"><g><path d="M 15.1875 -5.890625 C 15.1875 -3.972656 14.5 -2.460938 13.125 -1.359375 C 11.75 -0.253906 9.832031 0.296875 7.375 0.296875 C 5.101562 0.296875 3.097656 -0.128906 1.359375 -0.984375 L 1.359375 -5.171875 C 2.796875 -4.523438 4.007812 -4.070312 5 -3.8125 C 5.988281 -3.550781 6.894531 -3.421875 7.71875 -3.421875 C 8.707031 -3.421875 9.460938 -3.609375 9.984375 -3.984375 C 10.515625 -4.367188 10.78125 -4.929688 10.78125 -5.671875 C 10.78125 -6.085938 10.660156 -6.457031 10.421875 -6.78125 C 10.191406 -7.101562 9.851562 -7.414062 9.40625 -7.71875 C 8.957031 -8.019531 8.039062 -8.5 6.65625 -9.15625 C 5.363281 -9.769531 4.390625 -10.351562 3.734375 -10.90625 C 3.085938 -11.46875 2.570312 -12.117188 2.1875 -12.859375 C 1.800781 -13.609375 1.609375 -14.484375 1.609375 -15.484375 C 1.609375 -17.359375 2.242188 -18.832031 3.515625 -19.90625 C 4.785156 -20.976562 6.546875 -21.515625 8.796875 -21.515625 C 9.898438 -21.515625 10.953125 -21.382812 11.953125 -21.125 C 12.953125 -20.863281 14 -20.5 15.09375 -20.03125 L 13.640625 -16.53125 C 12.503906 -16.988281 11.566406 -17.3125 10.828125 -17.5 C 10.085938 -17.6875 9.363281 -17.78125 8.65625 -17.78125 C 7.800781 -17.78125 7.144531 -17.582031 6.6875 -17.1875 C 6.226562 -16.789062 6 -16.269531 6 -15.625 C 6 -15.226562 6.09375 -14.878906 6.28125 -14.578125 C 6.46875 -14.285156 6.757812 -14.003906 7.15625 -13.734375 C 7.5625 -13.460938 8.515625 -12.96875 10.015625 -12.25 C 11.992188 -11.300781 13.347656 -10.347656 14.078125 -9.390625 C 14.816406 -8.441406 15.1875 -7.273438 15.1875 -5.890625 Z M 15.1875 -5.890625 "/></g></g></g><g fill="#ffffff" fill-opacity="1"><g transform="translate(222.041439, 53.747783)"><g/></g></g><g fill="#ffffff" fill-opacity="1"><g transform="translate(229.760263, 53.747783)"><g><path d="M 7.171875 -11.796875 L 8.625 -11.796875 C 10.039062 -11.796875 11.085938 -12.03125 11.765625 -12.5 C 12.441406 -12.976562 12.78125 -13.726562 12.78125 -14.75 C 12.78125 -15.75 12.429688 -16.460938 11.734375 -16.890625 C 11.046875 -17.316406 9.976562 -17.53125 8.53125 -17.53125 L 7.171875 -17.53125 Z M 7.171875 -8.140625 L 7.171875 0 L 2.671875 0 L 2.671875 -21.21875 L 8.859375 -21.21875 C 11.734375 -21.21875 13.863281 -20.691406 15.25 -19.640625 C 16.632812 -18.585938 17.328125 -16.992188 17.328125 -14.859375 C 17.328125 -13.609375 16.984375 -12.5 16.296875 -11.53125 C 15.609375 -10.5625 14.632812 -9.800781 13.375 -9.25 C 16.570312 -4.476562 18.65625 -1.394531 19.625 0 L 14.625 0 L 9.5625 -8.140625 Z M 7.171875 -8.140625 "/></g></g></g><g fill="#ffffff" fill-opacity="1"><g transform="translate(249.376524, 53.747783)"><g><path d="M 14.890625 0 L 2.671875 0 L 2.671875 -21.21875 L 14.890625 -21.21875 L 14.890625 -17.53125 L 7.171875 -17.53125 L 7.171875 -12.875 L 14.34375 -12.875 L 14.34375 -9.1875 L 7.171875 -9.1875 L 7.171875 -3.71875 L 14.890625 -3.71875 Z M 14.890625 0 "/></g></g></g><g fill="#ffffff" fill-opacity="1"><g transform="translate(266.018432, 53.747783)"><g><path d="M 15.65625 0 L 14.125 -5.046875 L 6.390625 -5.046875 L 4.84375 0 L 0 0 L 7.484375 -21.296875 L 12.984375 -21.296875 L 20.5 0 Z M 13.046875 -8.828125 C 11.617188 -13.398438 10.816406 -15.984375 10.640625 -16.578125 C 10.460938 -17.179688 10.335938 -17.660156 10.265625 -18.015625 C 9.941406 -16.773438 9.023438 -13.710938 7.515625 -8.828125 Z M 13.046875 -8.828125 "/></g></g></g><g fill="#ffffff" fill-opacity="1"><g transform="translate(286.51974, 53.747783)"><g><path d="M 2.671875 0 L 2.671875 -21.21875 L 7.171875 -21.21875 L 7.171875 -3.71875 L 15.78125 -3.71875 L 15.78125 0 Z M 2.671875 0 "/></g></g></g><g fill="#ffffff" fill-opacity="1"><g transform="translate(303.306726, 53.747783)"><g><path d="M 2.671875 0 L 2.671875 -21.21875 L 7.171875 -21.21875 L 7.171875 0 Z M 2.671875 0 "/></g></g></g><g fill="#ffffff" fill-opacity="1"><g transform="translate(313.14387, 53.747783)"><g><path d="M 16.5 0 L 0.71875 0 L 0.71875 -2.921875 L 10.890625 -17.5 L 0.984375 -17.5 L 0.984375 -21.21875 L 16.21875 -21.21875 L 16.21875 -18.3125 L 6.0625 -3.71875 L 16.5 -3.71875 Z M 16.5 0 "/></g></g></g><g fill="#ffffff" fill-opacity="1"><g transform="translate(330.351629, 53.747783)"><g><path d="M 15.65625 0 L 14.125 -5.046875 L 6.390625 -5.046875 L 4.84375 0 L 0 0 L 7.484375 -21.296875 L 12.984375 -21.296875 L 20.5 0 Z M 13.046875 -8.828125 C 11.617188 -13.398438 10.816406 -15.984375 10.640625 -16.578125 C 10.460938 -17.179688 10.335938 -17.660156 10.265625 -18.015625 C 9.941406 -16.773438 9.023438 -13.710938 7.515625 -8.828125 Z M 13.046875 -8.828125 "/></g></g></g><g fill="#ffffff" fill-opacity="1"><g transform="translate(350.852954, 53.747783)"><g><path d="M 20.265625 -10.8125 C 20.265625 -7.320312 19.269531 -4.644531 17.28125 -2.78125 C 15.300781 -0.925781 12.429688 0 8.671875 0 L 2.671875 0 L 2.671875 -21.21875 L 9.328125 -21.21875 C 12.796875 -21.21875 15.484375 -20.300781 17.390625 -18.46875 C 19.304688 -16.644531 20.265625 -14.09375 20.265625 -10.8125 Z M 15.59375 -10.6875 C 15.59375 -15.25 13.582031 -17.53125 9.5625 -17.53125 L 7.171875 -17.53125 L 7.171875 -3.71875 L 9.09375 -3.71875 C 13.425781 -3.71875 15.59375 -6.039062 15.59375 -10.6875 Z M 15.59375 -10.6875 "/></g></g></g><g fill="#ffffff" fill-opacity="1"><g transform="translate(372.848694, 53.747783)"><g><path d="M 15.65625 0 L 14.125 -5.046875 L 6.390625 -5.046875 L 4.84375 0 L 0 0 L 7.484375 -21.296875 L 12.984375 -21.296875 L 20.5 0 Z M 13.046875 -8.828125 C 11.617188 -13.398438 10.816406 -15.984375 10.640625 -16.578125 C 10.460938 -17.179688 10.335938 -17.660156 10.265625 -18.015625 C 9.941406 -16.773438 9.023438 -13.710938 7.515625 -8.828125 Z M 13.046875 -8.828125 "/></g></g></g><g fill="#ffffff" fill-opacity="1"><g transform="translate(393.350001, 53.747783)"><g><path d="M 15.1875 -5.890625 C 15.1875 -3.972656 14.5 -2.460938 13.125 -1.359375 C 11.75 -0.253906 9.832031 0.296875 7.375 0.296875 C 5.101562 0.296875 3.097656 -0.128906 1.359375 -0.984375 L 1.359375 -5.171875 C 2.796875 -4.523438 4.007812 -4.070312 5 -3.8125 C 5.988281 -3.550781 6.894531 -3.421875 7.71875 -3.421875 C 8.707031 -3.421875 9.460938 -3.609375 9.984375 -3.984375 C 10.515625 -4.367188 10.78125 -4.929688 10.78125 -5.671875 C 10.78125 -6.085938 10.660156 -6.457031 10.421875 -6.78125 C 10.191406 -7.101562 9.851562 -7.414062 9.40625 -7.71875 C 8.957031 -8.019531 8.039062 -8.5 6.65625 -9.15625 C 5.363281 -9.769531 4.390625 -10.351562 3.734375 -10.90625 C 3.085938 -11.46875 2.570312 -12.117188 2.1875 -12.859375 C 1.800781 -13.609375 1.609375 -14.484375 1.609375 -15.484375 C 1.609375 -17.359375 2.242188 -18.832031 3.515625 -19.90625 C 4.785156 -20.976562 6.546875 -21.515625 8.796875 -21.515625 C 9.898438 -21.515625 10.953125 -21.382812 11.953125 -21.125 C 12.953125 -20.863281 14 -20.5 15.09375 -20.03125 L 13.640625 -16.53125 C 12.503906 -16.988281 11.566406 -17.3125 10.828125 -17.5 C 10.085938 -17.6875 9.363281 -17.78125 8.65625 -17.78125 C 7.800781 -17.78125 7.144531 -17.582031 6.6875 -17.1875 C 6.226562 -16.789062 6 -16.269531 6 -15.625 C 6 -15.226562 6.09375 -14.878906 6.28125 -14.578125 C 6.46875 -14.285156 6.757812 -14.003906 7.15625 -13.734375 C 7.5625 -13.460938 8.515625 -12.96875 10.015625 -12.25 C 11.992188 -11.300781 13.347656 -10.347656 14.078125 -9.390625 C 14.816406 -8.441406 15.1875 -7.273438 15.1875 -5.890625 Z M 15.1875 -5.890625 "/></g></g></g><g fill="#ffffff" fill-opacity="1"><g transform="translate(184.355576, 69.666379)"><g><path d="M 3.859375 -7.15625 C 4.785156 -7.15625 5.515625 -6.929688 6.046875 -6.484375 C 6.578125 -6.046875 6.84375 -5.4375 6.84375 -4.65625 C 6.84375 -3.882812 6.578125 -3.273438 6.046875 -2.828125 C 5.515625 -2.390625 4.785156 -2.171875 3.859375 -2.171875 L 2.09375 -2.171875 L 2.09375 0 L 1.078125 0 L 1.078125 -7.15625 Z M 3.828125 -3.0625 C 4.472656 -3.0625 4.96875 -3.195312 5.3125 -3.46875 C 5.65625 -3.75 5.828125 -4.144531 5.828125 -4.65625 C 5.828125 -5.175781 5.65625 -5.570312 5.3125 -5.84375 C 4.96875 -6.125 4.472656 -6.265625 3.828125 -6.265625 L 2.09375 -6.265625 L 2.09375 -3.0625 Z M 3.828125 -3.0625 "/></g></g></g><g fill="#ffffff" fill-opacity="1"><g transform="translate(194.055181, 69.666379)"><g><path d="M 5.625 -1.78125 L 1.828125 -1.78125 L 1.046875 0 L -0.015625 0 L 3.234375 -7.15625 L 4.234375 -7.15625 L 7.484375 0 L 6.421875 0 Z M 5.265625 -2.609375 L 3.734375 -6.109375 L 2.1875 -2.609375 Z M 5.265625 -2.609375 "/></g></g></g><g fill="#ffffff" fill-opacity="1"><g transform="translate(203.856867, 69.666379)"><g><path d="M 5.859375 0 L 4.3125 -2.203125 C 4.125 -2.179688 3.972656 -2.171875 3.859375 -2.171875 L 2.09375 -2.171875 L 2.09375 0 L 1.078125 0 L 1.078125 -7.15625 L 3.859375 -7.15625 C 4.785156 -7.15625 5.515625 -6.929688 6.046875 -6.484375 C 6.578125 -6.046875 6.84375 -5.4375 6.84375 -4.65625 C 6.84375 -4.101562 6.707031 -3.632812 6.4375 -3.25 C 6.164062 -2.863281 5.773438 -2.582031 5.265625 -2.40625 L 6.96875 0 Z M 3.828125 -3.046875 C 4.472656 -3.046875 4.96875 -3.1875 5.3125 -3.46875 C 5.65625 -3.75 5.828125 -4.144531 5.828125 -4.65625 C 5.828125 -5.175781 5.65625 -5.570312 5.3125 -5.84375 C 4.96875 -6.125 4.472656 -6.265625 3.828125 -6.265625 L 2.09375 -6.265625 L 2.09375 -3.046875 Z M 3.828125 -3.046875 "/></g></g></g><g fill="#ffffff" fill-opacity="1"><g transform="translate(213.607517, 69.666379)"><g><path d="M 6.265625 -0.890625 L 6.265625 0 L 1.078125 0 L 1.078125 -7.15625 L 6.125 -7.15625 L 6.125 -6.265625 L 2.09375 -6.265625 L 2.09375 -4.0625 L 5.6875 -4.0625 L 5.6875 -3.203125 L 2.09375 -3.203125 L 2.09375 -0.890625 Z M 6.265625 -0.890625 "/></g></g></g><g fill="#ffffff" fill-opacity="1"><g transform="translate(222.776285, 69.666379)"><g><path d="M 4.265625 0.078125 C 3.554688 0.078125 2.910156 -0.078125 2.328125 -0.390625 C 1.753906 -0.710938 1.300781 -1.148438 0.96875 -1.703125 C 0.644531 -2.253906 0.484375 -2.878906 0.484375 -3.578125 C 0.484375 -4.273438 0.644531 -4.898438 0.96875 -5.453125 C 1.300781 -6.003906 1.753906 -6.4375 2.328125 -6.75 C 2.910156 -7.070312 3.5625 -7.234375 4.28125 -7.234375 C 4.84375 -7.234375 5.351562 -7.140625 5.8125 -6.953125 C 6.28125 -6.765625 6.675781 -6.488281 7 -6.125 L 6.328125 -5.484375 C 5.796875 -6.046875 5.128906 -6.328125 4.328125 -6.328125 C 3.796875 -6.328125 3.3125 -6.207031 2.875 -5.96875 C 2.445312 -5.726562 2.113281 -5.398438 1.875 -4.984375 C 1.632812 -4.566406 1.515625 -4.097656 1.515625 -3.578125 C 1.515625 -3.054688 1.632812 -2.585938 1.875 -2.171875 C 2.113281 -1.753906 2.445312 -1.425781 2.875 -1.1875 C 3.3125 -0.945312 3.796875 -0.828125 4.328125 -0.828125 C 5.117188 -0.828125 5.785156 -1.113281 6.328125 -1.6875 L 7 -1.046875 C 6.675781 -0.671875 6.28125 -0.390625 5.8125 -0.203125 C 5.34375 -0.015625 4.828125 0.078125 4.265625 0.078125 Z M 4.265625 0.078125 "/></g></g></g><g fill="#ffffff" fill-opacity="1"><g transform="translate(232.486104, 69.666379)"><g><path d="M 6.265625 -0.890625 L 6.265625 0 L 1.078125 0 L 1.078125 -7.15625 L 6.125 -7.15625 L 6.125 -6.265625 L 2.09375 -6.265625 L 2.09375 -4.0625 L 5.6875 -4.0625 L 5.6875 -3.203125 L 2.09375 -3.203125 L 2.09375 -0.890625 Z M 6.265625 -0.890625 "/></g></g></g><g fill="#ffffff" fill-opacity="1"><g transform="translate(241.654873, 69.666379)"><g><path d="M 5.859375 0 L 4.3125 -2.203125 C 4.125 -2.179688 3.972656 -2.171875 3.859375 -2.171875 L 2.09375 -2.171875 L 2.09375 0 L 1.078125 0 L 1.078125 -7.15625 L 3.859375 -7.15625 C 4.785156 -7.15625 5.515625 -6.929688 6.046875 -6.484375 C 6.578125 -6.046875 6.84375 -5.4375 6.84375 -4.65625 C 6.84375 -4.101562 6.707031 -3.632812 6.4375 -3.25 C 6.164062 -2.863281 5.773438 -2.582031 5.265625 -2.40625 L 6.96875 0 Z M 3.828125 -3.046875 C 4.472656 -3.046875 4.96875 -3.1875 5.3125 -3.46875 C 5.65625 -3.75 5.828125 -4.144531 5.828125 -4.65625 C 5.828125 -5.175781 5.65625 -5.570312 5.3125 -5.84375 C 4.96875 -6.125 4.472656 -6.265625 3.828125 -6.265625 L 2.09375 -6.265625 L 2.09375 -3.046875 Z M 3.828125 -3.046875 "/></g></g></g><path stroke-linecap="butt" transform="matrix(0.0848287, -0.745187, 0.745187, 0.0848287, 743.532855, 84.739721)" fill="none" stroke-linejoin="miter" d="M -0.000192831 8.500346 L 116.198356 8.498333 " stroke="#d7e9f8" stroke-width="17" stroke-opacity="1" stroke-miterlimit="4"/><path stroke-linecap="butt" transform="matrix(0.0848287, -0.745187, 0.745187, 0.0848287, 732.421383, 90.298056)" fill="none" stroke-linejoin="miter" d="M -0.000808676 8.497987 L 116.198329 8.501149 " stroke="#d7e9f8" stroke-width="17" stroke-opacity="1" stroke-miterlimit="4"/><path stroke-linecap="butt" transform="matrix(0.0848287, -0.745187, 0.745187, 0.0848287, 754.94651, 88.553868)" fill="none" stroke-linejoin="miter" d="M 0.00205047 8.500637 L 116.200599 8.498624 " stroke="#d7e9f8" stroke-width="17" stroke-opacity="1" stroke-miterlimit="4"/><path stroke-linecap="butt" transform="matrix(0.0848287, -0.745187, 0.745187, 0.0848287, 766.20911, 90.683332)" fill="none" stroke-linejoin="miter" d="M -0.00251745 8.499975 L 116.196031 8.497962 " stroke="#d7e9f8" stroke-width="17" stroke-opacity="1" stroke-miterlimit="4"/></svg>