<svg xmlns="http://www.w3.org/2000/svg" xmlns:xlink="http://www.w3.org/1999/xlink" width="1440" zoomAndPan="magnify" viewBox="0 0 1080 89.999999" height="120" preserveAspectRatio="xMidYMid meet" version="1.0"><defs><g/><clipPath id="b577f61fbf"><path d="M 584.558594 37.671875 L 587.882812 37.671875 L 587.882812 40.925781 L 584.558594 40.925781 Z M 584.558594 37.671875 " clip-rule="nonzero"/></clipPath><clipPath id="8fb560c5b9"><path d="M 0 12.675781 L 754.949219 12.675781 L 754.949219 83.277344 L 0 83.277344 Z M 0 12.675781 " clip-rule="nonzero"/></clipPath><clipPath id="d700fd3cbe"><path d="M 735.179688 12.621094 L 1080 12.621094 L 1080 83.027344 L 735.179688 83.027344 Z M 735.179688 12.621094 " clip-rule="nonzero"/></clipPath></defs><g clip-path="url(#b577f61fbf)"><path fill="#d7e9f8" d="M 584.558594 37.671875 L 587.882812 37.671875 L 587.882812 40.925781 L 584.558594 40.925781 Z M 584.558594 37.671875 " fill-opacity="1" fill-rule="nonzero"/></g><rect x="-108" width="1296" fill="#d7e9f8" y="-9" height="107.999999" fill-opacity="1"/><g clip-path="url(#8fb560c5b9)"><path fill="#13294b" d="M 0 12.675781 L 754.949219 12.675781 L 754.949219 83.277344 L 0 83.277344 Z M 0 12.675781 " fill-opacity="1" fill-rule="nonzero"/></g><path stroke-linecap="round" transform="matrix(0.75, 0, 0, 0.75, 156.682644, 65.138437)" fill="none" stroke-linejoin="miter" d="M 1.501266 1.497709 L 24.386684 1.497709 " stroke="#d7e9f8" stroke-width="3" stroke-opacity="1" stroke-miterlimit="4"/><g clip-path="url(#d700fd3cbe)"><path fill="#ffffff" d="M 735.179688 12.621094 L 1094.261719 12.621094 L 1094.261719 83.027344 L 735.179688 83.027344 Z M 735.179688 12.621094 " fill-opacity="1" fill-rule="nonzero"/></g><path stroke-linecap="butt" transform="matrix(0.0848287, -0.745187, 0.745187, 0.0848287, 721.309888, 88.058714)" fill="none" stroke-linejoin="miter" d="M -0.00189348 8.500956 L 116.196655 8.498943 " stroke="#d7e9f8" stroke-width="17" stroke-opacity="1" stroke-miterlimit="4"/><g fill="#ffffff" fill-opacity="1"><g transform="translate(138.153851, 53.74777)"><g><path d="M 7.09375 0 L 2.671875 0 L 2.671875 -21.21875 L 14.828125 -21.21875 L 14.828125 -17.53125 L 7.09375 -17.53125 L 7.09375 -12.0625 L 14.296875 -12.0625 L 14.296875 -8.390625 L 7.09375 -8.390625 Z M 7.09375 0 "/></g></g></g><g fill="#ffffff" fill-opacity="1"><g transform="translate(154.462044, 53.74777)"><g><path d="M 21.921875 -10.640625 C 21.921875 -7.128906 21.050781 -4.425781 19.3125 -2.53125 C 17.570312 -0.644531 15.078125 0.296875 11.828125 0.296875 C 8.578125 0.296875 6.082031 -0.644531 4.34375 -2.53125 C 2.601562 -4.425781 1.734375 -7.140625 1.734375 -10.671875 C 1.734375 -14.203125 2.601562 -16.894531 4.34375 -18.75 C 6.09375 -20.613281 8.597656 -21.546875 11.859375 -21.546875 C 15.117188 -21.546875 17.609375 -20.609375 19.328125 -18.734375 C 21.054688 -16.859375 21.921875 -14.160156 21.921875 -10.640625 Z M 6.4375 -10.640625 C 6.4375 -8.265625 6.882812 -6.476562 7.78125 -5.28125 C 8.6875 -4.082031 10.035156 -3.484375 11.828125 -3.484375 C 15.410156 -3.484375 17.203125 -5.867188 17.203125 -10.640625 C 17.203125 -15.421875 15.421875 -17.8125 11.859375 -17.8125 C 10.066406 -17.8125 8.710938 -17.207031 7.796875 -16 C 6.890625 -14.789062 6.4375 -13.003906 6.4375 -10.640625 Z M 6.4375 -10.640625 "/></g></g></g><g fill="#ffffff" fill-opacity="1"><g transform="translate(178.111826, 53.74777)"><g><path d="M 2.671875 0 L 2.671875 -21.21875 L 7.171875 -21.21875 L 7.171875 -3.71875 L 15.78125 -3.71875 L 15.78125 0 Z M 2.671875 0 "/></g></g></g><g fill="#ffffff" fill-opacity="1"><g transform="translate(194.898821, 53.74777)"><g><path d="M 20.046875 0 L 15.578125 0 L 15.578125 -9.15625 L 7.171875 -9.15625 L 7.171875 0 L 2.671875 0 L 2.671875 -21.21875 L 7.171875 -21.21875 L 7.171875 -12.90625 L 15.578125 -12.90625 L 15.578125 -21.21875 L 20.046875 -21.21875 Z M 20.046875 0 "/></g></g></g><g fill="#ffffff" fill-opacity="1"><g transform="translate(217.634533, 53.74777)"><g><path d="M 15.65625 0 L 14.125 -5.046875 L 6.390625 -5.046875 L 4.84375 0 L 0 0 L 7.484375 -21.296875 L 12.984375 -21.296875 L 20.5 0 Z M 13.046875 -8.828125 C 11.617188 -13.398438 10.816406 -15.984375 10.640625 -16.578125 C 10.460938 -17.179688 10.335938 -17.660156 10.265625 -18.015625 C 9.941406 -16.773438 9.023438 -13.710938 7.515625 -8.828125 Z M 13.046875 -8.828125 "/></g></g></g><g fill="#ffffff" fill-opacity="1"><g transform="translate(238.137495, 53.74777)"><g/></g></g><g fill="#ffffff" fill-opacity="1"><g transform="translate(184.355576, 69.666386)"><g><path d="M 1.078125 -7.15625 L 4.09375 -7.15625 C 4.84375 -7.15625 5.507812 -7.003906 6.09375 -6.703125 C 6.6875 -6.398438 7.144531 -5.976562 7.46875 -5.4375 C 7.789062 -4.894531 7.953125 -4.273438 7.953125 -3.578125 C 7.953125 -2.878906 7.789062 -2.257812 7.46875 -1.71875 C 7.144531 -1.175781 6.6875 -0.753906 6.09375 -0.453125 C 5.507812 -0.148438 4.84375 0 4.09375 0 L 1.078125 0 Z M 4.03125 -0.890625 C 4.601562 -0.890625 5.109375 -1 5.546875 -1.21875 C 5.992188 -1.445312 6.332031 -1.765625 6.5625 -2.171875 C 6.800781 -2.578125 6.921875 -3.046875 6.921875 -3.578125 C 6.921875 -4.109375 6.800781 -4.578125 6.5625 -4.984375 C 6.332031 -5.390625 5.992188 -5.703125 5.546875 -5.921875 C 5.109375 -6.148438 4.601562 -6.265625 4.03125 -6.265625 L 2.09375 -6.265625 L 2.09375 -0.890625 Z M 4.03125 -0.890625 "/></g></g></g><g fill="#ffffff" fill-opacity="1"><g transform="translate(195.116856, 69.666386)"><g><path d="M 6.265625 -0.890625 L 6.265625 0 L 1.078125 0 L 1.078125 -7.15625 L 6.125 -7.15625 L 6.125 -6.265625 L 2.09375 -6.265625 L 2.09375 -4.0625 L 5.6875 -4.0625 L 5.6875 -3.203125 L 2.09375 -3.203125 L 2.09375 -0.890625 Z M 6.265625 -0.890625 "/></g></g></g><g fill="#ffffff" fill-opacity="1"><g transform="translate(204.285623, 69.666386)"><g/></g></g><g fill="#ffffff" fill-opacity="1"><g transform="translate(209.360838, 69.666386)"><g><path d="M 3.859375 -7.15625 C 4.785156 -7.15625 5.515625 -6.929688 6.046875 -6.484375 C 6.578125 -6.046875 6.84375 -5.4375 6.84375 -4.65625 C 6.84375 -3.882812 6.578125 -3.273438 6.046875 -2.828125 C 5.515625 -2.390625 4.785156 -2.171875 3.859375 -2.171875 L 2.09375 -2.171875 L 2.09375 0 L 1.078125 0 L 1.078125 -7.15625 Z M 3.828125 -3.0625 C 4.472656 -3.0625 4.96875 -3.195312 5.3125 -3.46875 C 5.65625 -3.75 5.828125 -4.144531 5.828125 -4.65625 C 5.828125 -5.175781 5.65625 -5.570312 5.3125 -5.84375 C 4.96875 -6.125 4.472656 -6.265625 3.828125 -6.265625 L 2.09375 -6.265625 L 2.09375 -3.0625 Z M 3.828125 -3.0625 "/></g></g></g><g fill="#ffffff" fill-opacity="1"><g transform="translate(219.060444, 69.666386)"><g><path d="M 5.625 -1.78125 L 1.828125 -1.78125 L 1.046875 0 L -0.015625 0 L 3.234375 -7.15625 L 4.234375 -7.15625 L 7.484375 0 L 6.421875 0 Z M 5.265625 -2.609375 L 3.734375 -6.109375 L 2.1875 -2.609375 Z M 5.265625 -2.609375 "/></g></g></g><g fill="#ffffff" fill-opacity="1"><g transform="translate(228.862132, 69.666386)"><g><path d="M 6.03125 -3.625 L 7.015625 -3.625 L 7.015625 -0.828125 C 6.660156 -0.535156 6.242188 -0.3125 5.765625 -0.15625 C 5.296875 0 4.804688 0.078125 4.296875 0.078125 C 3.578125 0.078125 2.925781 -0.078125 2.34375 -0.390625 C 1.769531 -0.710938 1.316406 -1.148438 0.984375 -1.703125 C 0.648438 -2.253906 0.484375 -2.878906 0.484375 -3.578125 C 0.484375 -4.273438 0.648438 -4.898438 0.984375 -5.453125 C 1.316406 -6.015625 1.773438 -6.453125 2.359375 -6.765625 C 2.941406 -7.078125 3.597656 -7.234375 4.328125 -7.234375 C 4.898438 -7.234375 5.414062 -7.140625 5.875 -6.953125 C 6.34375 -6.765625 6.742188 -6.488281 7.078125 -6.125 L 6.4375 -5.5 C 5.863281 -6.050781 5.171875 -6.328125 4.359375 -6.328125 C 3.816406 -6.328125 3.328125 -6.207031 2.890625 -5.96875 C 2.460938 -5.738281 2.125 -5.410156 1.875 -4.984375 C 1.632812 -4.566406 1.515625 -4.097656 1.515625 -3.578125 C 1.515625 -3.054688 1.632812 -2.585938 1.875 -2.171875 C 2.125 -1.753906 2.460938 -1.425781 2.890625 -1.1875 C 3.328125 -0.945312 3.816406 -0.828125 4.359375 -0.828125 C 4.992188 -0.828125 5.550781 -0.976562 6.03125 -1.28125 Z M 6.03125 -3.625 "/></g></g></g><g fill="#ffffff" fill-opacity="1"><g transform="translate(239.072158, 69.666386)"><g><path d="M 5.625 -1.78125 L 1.828125 -1.78125 L 1.046875 0 L -0.015625 0 L 3.234375 -7.15625 L 4.234375 -7.15625 L 7.484375 0 L 6.421875 0 Z M 5.265625 -2.609375 L 3.734375 -6.109375 L 2.1875 -2.609375 Z M 5.265625 -2.609375 "/></g></g></g><g fill="#ffffff" fill-opacity="1"><g transform="translate(248.873846, 69.666386)"><g><path d="M 7.703125 0 L 7.6875 -5.21875 L 5.109375 -0.875 L 4.640625 -0.875 L 2.046875 -5.1875 L 2.046875 0 L 1.078125 0 L 1.078125 -7.15625 L 1.90625 -7.15625 L 4.890625 -2.125 L 7.84375 -7.15625 L 8.671875 -7.15625 L 8.6875 0 Z M 7.703125 0 "/></g></g></g><g fill="#ffffff" fill-opacity="1"><g transform="translate(260.952002, 69.666386)"><g><path d="M 6.265625 -0.890625 L 6.265625 0 L 1.078125 0 L 1.078125 -7.15625 L 6.125 -7.15625 L 6.125 -6.265625 L 2.09375 -6.265625 L 2.09375 -4.0625 L 5.6875 -4.0625 L 5.6875 -3.203125 L 2.09375 -3.203125 L 2.09375 -0.890625 Z M 6.265625 -0.890625 "/></g></g></g><g fill="#ffffff" fill-opacity="1"><g transform="translate(270.120771, 69.666386)"><g><path d="M 7.21875 -7.15625 L 7.21875 0 L 6.390625 0 L 2.09375 -5.328125 L 2.09375 0 L 1.078125 0 L 1.078125 -7.15625 L 1.90625 -7.15625 L 6.203125 -1.8125 L 6.203125 -7.15625 Z M 7.21875 -7.15625 "/></g></g></g><g fill="#ffffff" fill-opacity="1"><g transform="translate(280.739131, 69.666386)"><g><path d="M 2.5 -6.265625 L 0.046875 -6.265625 L 0.046875 -7.15625 L 5.953125 -7.15625 L 5.953125 -6.265625 L 3.5 -6.265625 L 3.5 0 L 2.5 0 Z M 2.5 -6.265625 "/></g></g></g><g fill="#ffffff" fill-opacity="1"><g transform="translate(289.060613, 69.666386)"><g><path d="M 4.296875 0.078125 C 3.578125 0.078125 2.925781 -0.078125 2.34375 -0.390625 C 1.769531 -0.710938 1.316406 -1.148438 0.984375 -1.703125 C 0.648438 -2.265625 0.484375 -2.890625 0.484375 -3.578125 C 0.484375 -4.265625 0.648438 -4.882812 0.984375 -5.4375 C 1.316406 -6 1.769531 -6.4375 2.34375 -6.75 C 2.925781 -7.070312 3.578125 -7.234375 4.296875 -7.234375 C 5.015625 -7.234375 5.660156 -7.070312 6.234375 -6.75 C 6.816406 -6.4375 7.269531 -6.003906 7.59375 -5.453125 C 7.925781 -4.898438 8.09375 -4.273438 8.09375 -3.578125 C 8.09375 -2.878906 7.925781 -2.253906 7.59375 -1.703125 C 7.269531 -1.148438 6.816406 -0.710938 6.234375 -0.390625 C 5.660156 -0.078125 5.015625 0.078125 4.296875 0.078125 Z M 4.296875 -0.828125 C 4.828125 -0.828125 5.300781 -0.945312 5.71875 -1.1875 C 6.132812 -1.425781 6.460938 -1.753906 6.703125 -2.171875 C 6.953125 -2.585938 7.078125 -3.054688 7.078125 -3.578125 C 7.078125 -4.097656 6.953125 -4.566406 6.703125 -4.984375 C 6.460938 -5.398438 6.132812 -5.726562 5.71875 -5.96875 C 5.300781 -6.207031 4.828125 -6.328125 4.296875 -6.328125 C 3.773438 -6.328125 3.300781 -6.207031 2.875 -5.96875 C 2.445312 -5.726562 2.113281 -5.398438 1.875 -4.984375 C 1.632812 -4.566406 1.515625 -4.097656 1.515625 -3.578125 C 1.515625 -3.054688 1.632812 -2.585938 1.875 -2.171875 C 2.113281 -1.753906 2.445312 -1.425781 2.875 -1.1875 C 3.300781 -0.945312 3.773438 -0.828125 4.296875 -0.828125 Z M 4.296875 -0.828125 "/></g></g></g><path stroke-linecap="butt" transform="matrix(0.0848287, -0.745187, 0.745187, 0.0848287, 743.532855, 84.739714)" fill="none" stroke-linejoin="miter" d="M -0.000202369 8.500347 L 116.198346 8.498334 " stroke="#d7e9f8" stroke-width="17" stroke-opacity="1" stroke-miterlimit="4"/><path stroke-linecap="butt" transform="matrix(0.0848287, -0.745187, 0.745187, 0.0848287, 732.421383, 90.298063)" fill="none" stroke-linejoin="miter" d="M -0.000799138 8.497986 L 116.198339 8.501148 " stroke="#d7e9f8" stroke-width="17" stroke-opacity="1" stroke-miterlimit="4"/><path stroke-linecap="butt" transform="matrix(0.0848287, -0.745187, 0.745187, 0.0848287, 754.94651, 88.553861)" fill="none" stroke-linejoin="miter" d="M 0.00204093 8.500638 L 116.200589 8.498625 " stroke="#d7e9f8" stroke-width="17" stroke-opacity="1" stroke-miterlimit="4"/><path stroke-linecap="butt" transform="matrix(0.0848287, -0.745187, 0.745187, 0.0848287, 766.20911, 90.683332)" fill="none" stroke-linejoin="miter" d="M -0.00251745 8.499975 L 116.196031 8.497962 " stroke="#d7e9f8" stroke-width="17" stroke-opacity="1" stroke-miterlimit="4"/></svg>