<svg xmlns="http://www.w3.org/2000/svg" xmlns:xlink="http://www.w3.org/1999/xlink" width="1440" zoomAndPan="magnify" viewBox="0 0 1080 89.999999" height="120" preserveAspectRatio="xMidYMid meet" version="1.0"><defs><g/><clipPath id="f3e618fcd1"><path d="M 584.558594 37.671875 L 587.882812 37.671875 L 587.882812 40.925781 L 584.558594 40.925781 Z M 584.558594 37.671875 " clip-rule="nonzero"/></clipPath><clipPath id="eface50807"><path d="M 0 12.675781 L 754.949219 12.675781 L 754.949219 83.277344 L 0 83.277344 Z M 0 12.675781 " clip-rule="nonzero"/></clipPath><clipPath id="5225a86caa"><path d="M 735.179688 12.621094 L 1080 12.621094 L 1080 83.027344 L 735.179688 83.027344 Z M 735.179688 12.621094 " clip-rule="nonzero"/></clipPath></defs><g clip-path="url(#f3e618fcd1)"><path fill="#d7e9f8" d="M 584.558594 37.671875 L 587.882812 37.671875 L 587.882812 40.925781 L 584.558594 40.925781 Z M 584.558594 37.671875 " fill-opacity="1" fill-rule="nonzero"/></g><rect x="-108" width="1296" fill="#d7e9f8" y="-9" height="107.999999" fill-opacity="1"/><g clip-path="url(#eface50807)"><path fill="#13294b" d="M 0 12.675781 L 754.949219 12.675781 L 754.949219 83.277344 L 0 83.277344 Z M 0 12.675781 " fill-opacity="1" fill-rule="nonzero"/></g><path stroke-linecap="round" transform="matrix(0.75, 0, 0, 0.75, 156.682644, 65.138437)" fill="none" stroke-linejoin="miter" d="M 1.501266 1.497709 L 24.386684 1.497709 " stroke="#d7e9f8" stroke-width="3" stroke-opacity="1" stroke-miterlimit="4"/><g clip-path="url(#5225a86caa)"><path fill="#ffffff" d="M 735.179688 12.621094 L 1094.261719 12.621094 L 1094.261719 83.027344 L 735.179688 83.027344 Z M 735.179688 12.621094 " fill-opacity="1" fill-rule="nonzero"/></g><path stroke-linecap="butt" transform="matrix(0.0848287, -0.745187, 0.745187, 0.0848287, 721.309888, 88.058714)" fill="none" stroke-linejoin="miter" d="M -0.00189348 8.500956 L 116.196655 8.498943 " stroke="#d7e9f8" stroke-width="17" stroke-opacity="1" stroke-miterlimit="4"/><g fill="#ffffff" fill-opacity="1"><g transform="translate(122.796372, 53.747783)"><g><path d="M 2.671875 -21.21875 L 9.265625 -21.21875 C 12.273438 -21.21875 14.457031 -20.785156 15.8125 -19.921875 C 17.175781 -19.066406 17.859375 -17.707031 17.859375 -15.84375 C 17.859375 -14.570312 17.5625 -13.53125 16.96875 -12.71875 C 16.375 -11.90625 15.582031 -11.421875 14.59375 -11.265625 L 14.59375 -11.109375 C 15.9375 -10.816406 16.90625 -10.257812 17.5 -9.4375 C 18.101562 -8.613281 18.40625 -7.519531 18.40625 -6.15625 C 18.40625 -4.21875 17.703125 -2.707031 16.296875 -1.625 C 14.898438 -0.539062 13.003906 0 10.609375 0 L 2.671875 0 Z M 7.171875 -12.8125 L 9.78125 -12.8125 C 11 -12.8125 11.878906 -13 12.421875 -13.375 C 12.972656 -13.75 13.25 -14.375 13.25 -15.25 C 13.25 -16.0625 12.953125 -16.644531 12.359375 -17 C 11.765625 -17.351562 10.820312 -17.53125 9.53125 -17.53125 L 7.171875 -17.53125 Z M 7.171875 -9.25 L 7.171875 -3.71875 L 10.09375 -3.71875 C 11.332031 -3.71875 12.25 -3.953125 12.84375 -4.421875 C 13.4375 -4.898438 13.734375 -5.628906 13.734375 -6.609375 C 13.734375 -8.367188 12.472656 -9.25 9.953125 -9.25 Z M 7.171875 -9.25 "/></g></g></g><g fill="#ffffff" fill-opacity="1"><g transform="translate(142.76085, 53.747783)"><g><path d="M 19.9375 -21.21875 L 19.9375 -7.484375 C 19.9375 -5.921875 19.582031 -4.546875 18.875 -3.359375 C 18.175781 -2.179688 17.164062 -1.273438 15.84375 -0.640625 C 14.519531 -0.015625 12.953125 0.296875 11.140625 0.296875 C 8.410156 0.296875 6.289062 -0.398438 4.78125 -1.796875 C 3.28125 -3.203125 2.53125 -5.117188 2.53125 -7.546875 L 2.53125 -21.21875 L 7.015625 -21.21875 L 7.015625 -8.234375 C 7.015625 -6.597656 7.34375 -5.394531 8 -4.625 C 8.65625 -3.863281 9.742188 -3.484375 11.265625 -3.484375 C 12.734375 -3.484375 13.796875 -3.867188 14.453125 -4.640625 C 15.117188 -5.410156 15.453125 -6.613281 15.453125 -8.25 L 15.453125 -21.21875 Z M 19.9375 -21.21875 "/></g></g></g><g fill="#ffffff" fill-opacity="1"><g transform="translate(165.220888, 53.747783)"><g><path d="M 15.1875 -5.890625 C 15.1875 -3.972656 14.5 -2.460938 13.125 -1.359375 C 11.75 -0.253906 9.832031 0.296875 7.375 0.296875 C 5.101562 0.296875 3.097656 -0.128906 1.359375 -0.984375 L 1.359375 -5.171875 C 2.796875 -4.523438 4.007812 -4.070312 5 -3.8125 C 5.988281 -3.550781 6.894531 -3.421875 7.71875 -3.421875 C 8.707031 -3.421875 9.460938 -3.609375 9.984375 -3.984375 C 10.515625 -4.367188 10.78125 -4.929688 10.78125 -5.671875 C 10.78125 -6.085938 10.660156 -6.457031 10.421875 -6.78125 C 10.191406 -7.101562 9.851562 -7.414062 9.40625 -7.71875 C 8.957031 -8.019531 8.039062 -8.5 6.65625 -9.15625 C 5.363281 -9.769531 4.390625 -10.351562 3.734375 -10.90625 C 3.085938 -11.46875 2.570312 -12.117188 2.1875 -12.859375 C 1.800781 -13.609375 1.609375 -14.484375 1.609375 -15.484375 C 1.609375 -17.359375 2.242188 -18.832031 3.515625 -19.90625 C 4.785156 -20.976562 6.546875 -21.515625 8.796875 -21.515625 C 9.898438 -21.515625 10.953125 -21.382812 11.953125 -21.125 C 12.953125 -20.863281 14 -20.5 15.09375 -20.03125 L 13.640625 -16.53125 C 12.503906 -16.988281 11.566406 -17.3125 10.828125 -17.5 C 10.085938 -17.6875 9.363281 -17.78125 8.65625 -17.78125 C 7.800781 -17.78125 7.144531 -17.582031 6.6875 -17.1875 C 6.226562 -16.789062 6 -16.269531 6 -15.625 C 6 -15.226562 6.09375 -14.878906 6.28125 -14.578125 C 6.46875 -14.285156 6.757812 -14.003906 7.15625 -13.734375 C 7.5625 -13.460938 8.515625 -12.96875 10.015625 -12.25 C 11.992188 -11.300781 13.347656 -10.347656 14.078125 -9.390625 C 14.816406 -8.441406 15.1875 -7.273438 15.1875 -5.890625 Z M 15.1875 -5.890625 "/></g></g></g><g fill="#ffffff" fill-opacity="1"><g transform="translate(181.587118, 53.747783)"><g><path d="M 11.6875 -17.78125 C 9.988281 -17.78125 8.675781 -17.140625 7.75 -15.859375 C 6.820312 -14.585938 6.359375 -12.816406 6.359375 -10.546875 C 6.359375 -5.816406 8.132812 -3.453125 11.6875 -3.453125 C 13.175781 -3.453125 14.976562 -3.828125 17.09375 -4.578125 L 17.09375 -0.796875 C 15.351562 -0.0664062 13.410156 0.296875 11.265625 0.296875 C 8.171875 0.296875 5.804688 -0.640625 4.171875 -2.515625 C 2.546875 -4.390625 1.734375 -7.078125 1.734375 -10.578125 C 1.734375 -12.785156 2.132812 -14.71875 2.9375 -16.375 C 3.738281 -18.03125 4.890625 -19.300781 6.390625 -20.1875 C 7.898438 -21.070312 9.664062 -21.515625 11.6875 -21.515625 C 13.738281 -21.515625 15.804688 -21.019531 17.890625 -20.03125 L 16.4375 -16.375 C 15.644531 -16.75 14.847656 -17.078125 14.046875 -17.359375 C 13.242188 -17.640625 12.457031 -17.78125 11.6875 -17.78125 Z M 11.6875 -17.78125 "/></g></g></g><g fill="#ffffff" fill-opacity="1"><g transform="translate(200.521454, 53.747783)"><g><path d="M 15.65625 0 L 14.125 -5.046875 L 6.390625 -5.046875 L 4.84375 0 L 0 0 L 7.484375 -21.296875 L 12.984375 -21.296875 L 20.5 0 Z M 13.046875 -8.828125 C 11.617188 -13.398438 10.816406 -15.984375 10.640625 -16.578125 C 10.460938 -17.179688 10.335938 -17.660156 10.265625 -18.015625 C 9.941406 -16.773438 9.023438 -13.710938 7.515625 -8.828125 Z M 13.046875 -8.828125 "/></g></g></g><g fill="#ffffff" fill-opacity="1"><g transform="translate(221.022771, 53.747783)"><g><path d="M 7.171875 -11.796875 L 8.625 -11.796875 C 10.039062 -11.796875 11.085938 -12.03125 11.765625 -12.5 C 12.441406 -12.976562 12.78125 -13.726562 12.78125 -14.75 C 12.78125 -15.75 12.429688 -16.460938 11.734375 -16.890625 C 11.046875 -17.316406 9.976562 -17.53125 8.53125 -17.53125 L 7.171875 -17.53125 Z M 7.171875 -8.140625 L 7.171875 0 L 2.671875 0 L 2.671875 -21.21875 L 8.859375 -21.21875 C 11.734375 -21.21875 13.863281 -20.691406 15.25 -19.640625 C 16.632812 -18.585938 17.328125 -16.992188 17.328125 -14.859375 C 17.328125 -13.609375 16.984375 -12.5 16.296875 -11.53125 C 15.609375 -10.5625 14.632812 -9.800781 13.375 -9.25 C 16.570312 -4.476562 18.65625 -1.394531 19.625 0 L 14.625 0 L 9.5625 -8.140625 Z M 7.171875 -8.140625 "/></g></g></g><g fill="#ffffff" fill-opacity="1"><g transform="translate(184.355576, 69.666379)"><g><path d="M 7.28125 -7.15625 L 4.15625 0 L 3.140625 0 L -0.015625 -7.15625 L 1.09375 -7.15625 L 3.671875 -1.28125 L 6.265625 -7.15625 Z M 7.28125 -7.15625 "/></g></g></g><g fill="#ffffff" fill-opacity="1"><g transform="translate(193.953099, 69.666379)"><g><path d="M 1.078125 -7.15625 L 2.09375 -7.15625 L 2.09375 0 L 1.078125 0 Z M 1.078125 -7.15625 "/></g></g></g><g fill="#ffffff" fill-opacity="1"><g transform="translate(199.446857, 69.666379)"><g><path d="M 3.15625 0.078125 C 2.613281 0.078125 2.09375 -0.00390625 1.59375 -0.171875 C 1.09375 -0.335938 0.703125 -0.550781 0.421875 -0.8125 L 0.796875 -1.609375 C 1.066406 -1.367188 1.414062 -1.171875 1.84375 -1.015625 C 2.269531 -0.859375 2.707031 -0.78125 3.15625 -0.78125 C 3.75 -0.78125 4.191406 -0.878906 4.484375 -1.078125 C 4.773438 -1.285156 4.921875 -1.554688 4.921875 -1.890625 C 4.921875 -2.140625 4.835938 -2.335938 4.671875 -2.484375 C 4.515625 -2.640625 4.316406 -2.757812 4.078125 -2.84375 C 3.847656 -2.925781 3.519531 -3.015625 3.09375 -3.109375 C 2.550781 -3.242188 2.113281 -3.375 1.78125 -3.5 C 1.457031 -3.632812 1.175781 -3.832031 0.9375 -4.09375 C 0.707031 -4.363281 0.59375 -4.726562 0.59375 -5.1875 C 0.59375 -5.570312 0.691406 -5.914062 0.890625 -6.21875 C 1.097656 -6.53125 1.40625 -6.773438 1.8125 -6.953125 C 2.21875 -7.140625 2.722656 -7.234375 3.328125 -7.234375 C 3.753906 -7.234375 4.171875 -7.175781 4.578125 -7.0625 C 4.984375 -6.957031 5.332031 -6.800781 5.625 -6.59375 L 5.296875 -5.78125 C 4.992188 -5.96875 4.671875 -6.109375 4.328125 -6.203125 C 3.992188 -6.304688 3.660156 -6.359375 3.328125 -6.359375 C 2.753906 -6.359375 2.320312 -6.253906 2.03125 -6.046875 C 1.738281 -5.835938 1.59375 -5.566406 1.59375 -5.234375 C 1.59375 -4.984375 1.671875 -4.78125 1.828125 -4.625 C 1.992188 -4.476562 2.195312 -4.363281 2.4375 -4.28125 C 2.6875 -4.195312 3.019531 -4.101562 3.4375 -4 C 3.96875 -3.875 4.394531 -3.742188 4.71875 -3.609375 C 5.050781 -3.484375 5.332031 -3.285156 5.5625 -3.015625 C 5.800781 -2.753906 5.921875 -2.398438 5.921875 -1.953125 C 5.921875 -1.578125 5.816406 -1.234375 5.609375 -0.921875 C 5.410156 -0.609375 5.101562 -0.363281 4.6875 -0.1875 C 4.269531 -0.0078125 3.757812 0.078125 3.15625 0.078125 Z M 3.15625 0.078125 "/></g></g></g><g fill="#ffffff" fill-opacity="1"><g transform="translate(208.115415, 69.666379)"><g><path d="M 1.078125 -7.15625 L 2.09375 -7.15625 L 2.09375 0 L 1.078125 0 Z M 1.078125 -7.15625 "/></g></g></g><g fill="#ffffff" fill-opacity="1"><g transform="translate(213.609175, 69.666379)"><g><path d="M 2.5 -6.265625 L 0.046875 -6.265625 L 0.046875 -7.15625 L 5.953125 -7.15625 L 5.953125 -6.265625 L 3.5 -6.265625 L 3.5 0 L 2.5 0 Z M 2.5 -6.265625 "/></g></g></g><g fill="#ffffff" fill-opacity="1"><g transform="translate(221.930656, 69.666379)"><g><path d="M 5.625 -1.78125 L 1.828125 -1.78125 L 1.046875 0 L -0.015625 0 L 3.234375 -7.15625 L 4.234375 -7.15625 L 7.484375 0 L 6.421875 0 Z M 5.265625 -2.609375 L 3.734375 -6.109375 L 2.1875 -2.609375 Z M 5.265625 -2.609375 "/></g></g></g><path stroke-linecap="butt" transform="matrix(0.0848287, -0.745187, 0.745187, 0.0848287, 743.532855, 84.739721)" fill="none" stroke-linejoin="miter" d="M -0.000192831 8.500346 L 116.198356 8.498333 " stroke="#d7e9f8" stroke-width="17" stroke-opacity="1" stroke-miterlimit="4"/><path stroke-linecap="butt" transform="matrix(0.0848287, -0.745187, 0.745187, 0.0848287, 732.421383, 90.298056)" fill="none" stroke-linejoin="miter" d="M -0.000808676 8.497987 L 116.198329 8.501149 " stroke="#d7e9f8" stroke-width="17" stroke-opacity="1" stroke-miterlimit="4"/><path stroke-linecap="butt" transform="matrix(0.0848287, -0.745187, 0.745187, 0.0848287, 754.94651, 88.553868)" fill="none" stroke-linejoin="miter" d="M 0.00205047 8.500637 L 116.200599 8.498624 " stroke="#d7e9f8" stroke-width="17" stroke-opacity="1" stroke-miterlimit="4"/><path stroke-linecap="butt" transform="matrix(0.0848287, -0.745187, 0.745187, 0.0848287, 766.20911, 90.683332)" fill="none" stroke-linejoin="miter" d="M -0.00251745 8.499975 L 116.196031 8.497962 " stroke="#d7e9f8" stroke-width="17" stroke-opacity="1" stroke-miterlimit="4"/></svg>