<svg xmlns="http://www.w3.org/2000/svg" xmlns:xlink="http://www.w3.org/1999/xlink" width="1440" zoomAndPan="magnify" viewBox="0 0 1080 89.999999" height="120" preserveAspectRatio="xMidYMid meet" version="1.0"><defs><g/><clipPath id="356647dc46"><path d="M 584.558594 37.671875 L 587.882812 37.671875 L 587.882812 40.925781 L 584.558594 40.925781 Z M 584.558594 37.671875 " clip-rule="nonzero"/></clipPath><clipPath id="c11cd43b35"><path d="M 0 12.675781 L 754.949219 12.675781 L 754.949219 83.277344 L 0 83.277344 Z M 0 12.675781 " clip-rule="nonzero"/></clipPath><clipPath id="e508f61a4e"><path d="M 735.179688 12.621094 L 1080 12.621094 L 1080 83.027344 L 735.179688 83.027344 Z M 735.179688 12.621094 " clip-rule="nonzero"/></clipPath></defs><rect x="-108" width="1296" fill="#ffffff" y="-9" height="107.999999" fill-opacity="1"/><rect x="-108" width="1296" fill="#ffffff" y="-9" height="107.999999" fill-opacity="1"/><g clip-path="url(#356647dc46)"><path fill="#d7e9f8" d="M 584.558594 37.671875 L 587.882812 37.671875 L 587.882812 40.925781 L 584.558594 40.925781 Z M 584.558594 37.671875 " fill-opacity="1" fill-rule="nonzero"/></g><rect x="-108" width="1296" fill="#d7e9f8" y="-9" height="107.999999" fill-opacity="1"/><g clip-path="url(#c11cd43b35)"><path fill="#13294b" d="M 0 12.675781 L 754.949219 12.675781 L 754.949219 83.277344 L 0 83.277344 Z M 0 12.675781 " fill-opacity="1" fill-rule="nonzero"/></g><path stroke-linecap="round" transform="matrix(0.75, 0, 0, 0.75, 156.682644, 65.138437)" fill="none" stroke-linejoin="miter" d="M 1.501266 1.497709 L 24.386684 1.497709 " stroke="#d7e9f8" stroke-width="3" stroke-opacity="1" stroke-miterlimit="4"/><g clip-path="url(#e508f61a4e)"><path fill="#ffffff" d="M 735.179688 12.621094 L 1094.261719 12.621094 L 1094.261719 83.027344 L 735.179688 83.027344 Z M 735.179688 12.621094 " fill-opacity="1" fill-rule="nonzero"/></g><path stroke-linecap="butt" transform="matrix(0.0848287, -0.745187, 0.745187, 0.0848287, 721.309888, 88.058714)" fill="none" stroke-linejoin="miter" d="M -0.00189348 8.500956 L 116.196655 8.498943 " stroke="#d7e9f8" stroke-width="17" stroke-opacity="1" stroke-miterlimit="4"/><g fill="#ffffff" fill-opacity="1"><g transform="translate(78.725781, 50.627476)"><g><path d="M 20.265625 -10.8125 C 20.265625 -7.320312 19.269531 -4.644531 17.28125 -2.78125 C 15.300781 -0.925781 12.429688 0 8.671875 0 L 2.671875 0 L 2.671875 -21.21875 L 9.328125 -21.21875 C 12.796875 -21.21875 15.484375 -20.300781 17.390625 -18.46875 C 19.304688 -16.644531 20.265625 -14.09375 20.265625 -10.8125 Z M 15.59375 -10.6875 C 15.59375 -15.25 13.582031 -17.53125 9.5625 -17.53125 L 7.171875 -17.53125 L 7.171875 -3.71875 L 9.09375 -3.71875 C 13.425781 -3.71875 15.59375 -6.039062 15.59375 -10.6875 Z M 15.59375 -10.6875 "/></g></g></g><g fill="#ffffff" fill-opacity="1"><g transform="translate(100.721529, 50.627476)"><g><path d="M 14.890625 0 L 2.671875 0 L 2.671875 -21.21875 L 14.890625 -21.21875 L 14.890625 -17.53125 L 7.171875 -17.53125 L 7.171875 -12.875 L 14.34375 -12.875 L 14.34375 -9.1875 L 7.171875 -9.1875 L 7.171875 -3.71875 L 14.890625 -3.71875 Z M 14.890625 0 "/></g></g></g><g fill="#ffffff" fill-opacity="1"><g transform="translate(117.363433, 50.627476)"><g><path d="M 11.6875 -17.78125 C 9.988281 -17.78125 8.675781 -17.140625 7.75 -15.859375 C 6.820312 -14.585938 6.359375 -12.816406 6.359375 -10.546875 C 6.359375 -5.816406 8.132812 -3.453125 11.6875 -3.453125 C 13.175781 -3.453125 14.976562 -3.828125 17.09375 -4.578125 L 17.09375 -0.796875 C 15.351562 -0.0664062 13.410156 0.296875 11.265625 0.296875 C 8.171875 0.296875 5.804688 -0.640625 4.171875 -2.515625 C 2.546875 -4.390625 1.734375 -7.078125 1.734375 -10.578125 C 1.734375 -12.785156 2.132812 -14.71875 2.9375 -16.375 C 3.738281 -18.03125 4.890625 -19.300781 6.390625 -20.1875 C 7.898438 -21.070312 9.664062 -21.515625 11.6875 -21.515625 C 13.738281 -21.515625 15.804688 -21.019531 17.890625 -20.03125 L 16.4375 -16.375 C 15.644531 -16.75 14.847656 -17.078125 14.046875 -17.359375 C 13.242188 -17.640625 12.457031 -17.78125 11.6875 -17.78125 Z M 11.6875 -17.78125 "/></g></g></g><g fill="#ffffff" fill-opacity="1"><g transform="translate(136.29777, 50.627476)"><g><path d="M 2.671875 0 L 2.671875 -21.21875 L 7.171875 -21.21875 L 7.171875 -3.71875 L 15.78125 -3.71875 L 15.78125 0 Z M 2.671875 0 "/></g></g></g><g fill="#ffffff" fill-opacity="1"><g transform="translate(153.084769, 50.627476)"><g><path d="M 15.65625 0 L 14.125 -5.046875 L 6.390625 -5.046875 L 4.84375 0 L 0 0 L 7.484375 -21.296875 L 12.984375 -21.296875 L 20.5 0 Z M 13.046875 -8.828125 C 11.617188 -13.398438 10.816406 -15.984375 10.640625 -16.578125 C 10.460938 -17.179688 10.335938 -17.660156 10.265625 -18.015625 C 9.941406 -16.773438 9.023438 -13.710938 7.515625 -8.828125 Z M 13.046875 -8.828125 "/></g></g></g><g fill="#ffffff" fill-opacity="1"><g transform="translate(173.586085, 50.627476)"><g><path d="M 7.171875 -11.796875 L 8.625 -11.796875 C 10.039062 -11.796875 11.085938 -12.03125 11.765625 -12.5 C 12.441406 -12.976562 12.78125 -13.726562 12.78125 -14.75 C 12.78125 -15.75 12.429688 -16.460938 11.734375 -16.890625 C 11.046875 -17.316406 9.976562 -17.53125 8.53125 -17.53125 L 7.171875 -17.53125 Z M 7.171875 -8.140625 L 7.171875 0 L 2.671875 0 L 2.671875 -21.21875 L 8.859375 -21.21875 C 11.734375 -21.21875 13.863281 -20.691406 15.25 -19.640625 C 16.632812 -18.585938 17.328125 -16.992188 17.328125 -14.859375 C 17.328125 -13.609375 16.984375 -12.5 16.296875 -11.53125 C 15.609375 -10.5625 14.632812 -9.800781 13.375 -9.25 C 16.570312 -4.476562 18.65625 -1.394531 19.625 0 L 14.625 0 L 9.5625 -8.140625 Z M 7.171875 -8.140625 "/></g></g></g><g fill="#ffffff" fill-opacity="1"><g transform="translate(193.202346, 50.627476)"><g><path d="M 15.65625 0 L 14.125 -5.046875 L 6.390625 -5.046875 L 4.84375 0 L 0 0 L 7.484375 -21.296875 L 12.984375 -21.296875 L 20.5 0 Z M 13.046875 -8.828125 C 11.617188 -13.398438 10.816406 -15.984375 10.640625 -16.578125 C 10.460938 -17.179688 10.335938 -17.660156 10.265625 -18.015625 C 9.941406 -16.773438 9.023438 -13.710938 7.515625 -8.828125 Z M 13.046875 -8.828125 "/></g></g></g><g fill="#ffffff" fill-opacity="1"><g transform="translate(213.703662, 50.627476)"><g><path d="M 11.6875 -17.78125 C 9.988281 -17.78125 8.675781 -17.140625 7.75 -15.859375 C 6.820312 -14.585938 6.359375 -12.816406 6.359375 -10.546875 C 6.359375 -5.816406 8.132812 -3.453125 11.6875 -3.453125 C 13.175781 -3.453125 14.976562 -3.828125 17.09375 -4.578125 L 17.09375 -0.796875 C 15.351562 -0.0664062 13.410156 0.296875 11.265625 0.296875 C 8.171875 0.296875 5.804688 -0.640625 4.171875 -2.515625 C 2.546875 -4.390625 1.734375 -7.078125 1.734375 -10.578125 C 1.734375 -12.785156 2.132812 -14.71875 2.9375 -16.375 C 3.738281 -18.03125 4.890625 -19.300781 6.390625 -20.1875 C 7.898438 -21.070312 9.664062 -21.515625 11.6875 -21.515625 C 13.738281 -21.515625 15.804688 -21.019531 17.890625 -20.03125 L 16.4375 -16.375 C 15.644531 -16.75 14.847656 -17.078125 14.046875 -17.359375 C 13.242188 -17.640625 12.457031 -17.78125 11.6875 -17.78125 Z M 13.90625 3.625 C 13.90625 4.863281 13.539062 5.757812 12.8125 6.3125 C 12.082031 6.863281 10.953125 7.140625 9.421875 7.140625 C 8.671875 7.140625 7.96875 7.035156 7.3125 6.828125 L 7.3125 4.390625 C 7.570312 4.460938 7.921875 4.53125 8.359375 4.59375 C 8.796875 4.664062 9.132812 4.703125 9.375 4.703125 C 10.070312 4.703125 10.421875 4.398438 10.421875 3.796875 C 10.421875 2.992188 9.617188 2.472656 8.015625 2.234375 L 9.15625 0 L 11.953125 0 L 11.5625 0.890625 C 12.269531 1.117188 12.835938 1.476562 13.265625 1.96875 C 13.691406 2.457031 13.90625 3.007812 13.90625 3.625 Z M 13.90625 3.625 "/></g></g></g><g fill="#ffffff" fill-opacity="1"><g transform="translate(232.637999, 50.627476)"><g><path d="M 15.65625 0 L 14.125 -5.046875 L 6.390625 -5.046875 L 4.84375 0 L 0 0 L 7.484375 -21.296875 L 12.984375 -21.296875 L 20.5 0 Z M 13.046875 -8.828125 C 11.617188 -13.398438 10.816406 -15.984375 10.640625 -16.578125 C 10.460938 -17.179688 10.335938 -17.660156 10.265625 -18.015625 C 9.941406 -16.773438 9.023438 -13.710938 7.515625 -8.828125 Z M 7.875 -24.4375 C 7.582031 -24.4375 7.296875 -24.304688 7.015625 -24.046875 C 6.742188 -23.796875 6.546875 -23.410156 6.421875 -22.890625 L 4.25 -22.890625 C 4.351562 -24.285156 4.75 -25.378906 5.4375 -26.171875 C 6.132812 -26.972656 7.054688 -27.375 8.203125 -27.375 C 8.597656 -27.375 8.984375 -27.289062 9.359375 -27.125 C 9.742188 -26.96875 10.125 -26.796875 10.5 -26.609375 C 10.875 -26.421875 11.238281 -26.25 11.59375 -26.09375 C 11.957031 -25.9375 12.3125 -25.859375 12.65625 -25.859375 C 12.957031 -25.859375 13.242188 -25.984375 13.515625 -26.234375 C 13.796875 -26.484375 14 -26.875 14.125 -27.40625 L 16.28125 -27.40625 C 16.175781 -26 15.769531 -24.898438 15.0625 -24.109375 C 14.363281 -23.316406 13.457031 -22.921875 12.34375 -22.921875 C 11.9375 -22.921875 11.539062 -23 11.15625 -23.15625 C 10.78125 -23.3125 10.40625 -23.484375 10.03125 -23.671875 C 9.664062 -23.859375 9.300781 -24.03125 8.9375 -24.1875 C 8.582031 -24.351562 8.226562 -24.4375 7.875 -24.4375 Z M 7.875 -24.4375 "/></g></g></g><g fill="#ffffff" fill-opacity="1"><g transform="translate(253.139324, 50.627476)"><g><path d="M 21.921875 -10.640625 C 21.921875 -7.128906 21.050781 -4.425781 19.3125 -2.53125 C 17.570312 -0.644531 15.078125 0.296875 11.828125 0.296875 C 8.578125 0.296875 6.082031 -0.644531 4.34375 -2.53125 C 2.601562 -4.425781 1.734375 -7.140625 1.734375 -10.671875 C 1.734375 -14.203125 2.601562 -16.894531 4.34375 -18.75 C 6.09375 -20.613281 8.597656 -21.546875 11.859375 -21.546875 C 15.117188 -21.546875 17.609375 -20.609375 19.328125 -18.734375 C 21.054688 -16.859375 21.921875 -14.160156 21.921875 -10.640625 Z M 6.4375 -10.640625 C 6.4375 -8.265625 6.882812 -6.476562 7.78125 -5.28125 C 8.6875 -4.082031 10.035156 -3.484375 11.828125 -3.484375 C 15.410156 -3.484375 17.203125 -5.867188 17.203125 -10.640625 C 17.203125 -15.421875 15.421875 -17.8125 11.859375 -17.8125 C 10.066406 -17.8125 8.710938 -17.207031 7.796875 -16 C 6.890625 -14.789062 6.4375 -13.003906 6.4375 -10.640625 Z M 6.4375 -10.640625 "/></g></g></g><g fill="#ffffff" fill-opacity="1"><g transform="translate(184.355576, 69.666379)"><g><path d="M 4.265625 0.078125 C 3.554688 0.078125 2.910156 -0.078125 2.328125 -0.390625 C 1.753906 -0.710938 1.300781 -1.148438 0.96875 -1.703125 C 0.644531 -2.253906 0.484375 -2.878906 0.484375 -3.578125 C 0.484375 -4.273438 0.644531 -4.898438 0.96875 -5.453125 C 1.300781 -6.003906 1.753906 -6.4375 2.328125 -6.75 C 2.910156 -7.070312 3.5625 -7.234375 4.28125 -7.234375 C 4.84375 -7.234375 5.351562 -7.140625 5.8125 -6.953125 C 6.28125 -6.765625 6.675781 -6.488281 7 -6.125 L 6.328125 -5.484375 C 5.796875 -6.046875 5.128906 -6.328125 4.328125 -6.328125 C 3.796875 -6.328125 3.3125 -6.207031 2.875 -5.96875 C 2.445312 -5.726562 2.113281 -5.398438 1.875 -4.984375 C 1.632812 -4.566406 1.515625 -4.097656 1.515625 -3.578125 C 1.515625 -3.054688 1.632812 -2.585938 1.875 -2.171875 C 2.113281 -1.753906 2.445312 -1.425781 2.875 -1.1875 C 3.3125 -0.945312 3.796875 -0.828125 4.328125 -0.828125 C 5.117188 -0.828125 5.785156 -1.113281 6.328125 -1.6875 L 7 -1.046875 C 6.675781 -0.671875 6.28125 -0.390625 5.8125 -0.203125 C 5.34375 -0.015625 4.828125 0.078125 4.265625 0.078125 Z M 4.265625 0.078125 "/></g></g></g><g fill="#ffffff" fill-opacity="1"><g transform="translate(194.065394, 69.666379)"><g><path d="M 5.625 -1.78125 L 1.828125 -1.78125 L 1.046875 0 L -0.015625 0 L 3.234375 -7.15625 L 4.234375 -7.15625 L 7.484375 0 L 6.421875 0 Z M 5.265625 -2.609375 L 3.734375 -6.109375 L 2.1875 -2.609375 Z M 5.265625 -2.609375 "/></g></g></g><g fill="#ffffff" fill-opacity="1"><g transform="translate(203.867081, 69.666379)"><g><path d="M 1.078125 -7.15625 L 4.09375 -7.15625 C 4.84375 -7.15625 5.507812 -7.003906 6.09375 -6.703125 C 6.6875 -6.398438 7.144531 -5.976562 7.46875 -5.4375 C 7.789062 -4.894531 7.953125 -4.273438 7.953125 -3.578125 C 7.953125 -2.878906 7.789062 -2.257812 7.46875 -1.71875 C 7.144531 -1.175781 6.6875 -0.753906 6.09375 -0.453125 C 5.507812 -0.148438 4.84375 0 4.09375 0 L 1.078125 0 Z M 4.03125 -0.890625 C 4.601562 -0.890625 5.109375 -1 5.546875 -1.21875 C 5.992188 -1.445312 6.332031 -1.765625 6.5625 -2.171875 C 6.800781 -2.578125 6.921875 -3.046875 6.921875 -3.578125 C 6.921875 -4.109375 6.800781 -4.578125 6.5625 -4.984375 C 6.332031 -5.390625 5.992188 -5.703125 5.546875 -5.921875 C 5.109375 -6.148438 4.601562 -6.265625 4.03125 -6.265625 L 2.09375 -6.265625 L 2.09375 -0.890625 Z M 4.03125 -0.890625 "/></g></g></g><g fill="#ffffff" fill-opacity="1"><g transform="translate(214.628359, 69.666379)"><g><path d="M 5.625 -1.78125 L 1.828125 -1.78125 L 1.046875 0 L -0.015625 0 L 3.234375 -7.15625 L 4.234375 -7.15625 L 7.484375 0 L 6.421875 0 Z M 5.265625 -2.609375 L 3.734375 -6.109375 L 2.1875 -2.609375 Z M 5.265625 -2.609375 "/></g></g></g><g fill="#ffffff" fill-opacity="1"><g transform="translate(224.430047, 69.666379)"><g><path d="M 3.15625 0.078125 C 2.613281 0.078125 2.09375 -0.00390625 1.59375 -0.171875 C 1.09375 -0.335938 0.703125 -0.550781 0.421875 -0.8125 L 0.796875 -1.609375 C 1.066406 -1.367188 1.414062 -1.171875 1.84375 -1.015625 C 2.269531 -0.859375 2.707031 -0.78125 3.15625 -0.78125 C 3.75 -0.78125 4.191406 -0.878906 4.484375 -1.078125 C 4.773438 -1.285156 4.921875 -1.554688 4.921875 -1.890625 C 4.921875 -2.140625 4.835938 -2.335938 4.671875 -2.484375 C 4.515625 -2.640625 4.316406 -2.757812 4.078125 -2.84375 C 3.847656 -2.925781 3.519531 -3.015625 3.09375 -3.109375 C 2.550781 -3.242188 2.113281 -3.375 1.78125 -3.5 C 1.457031 -3.632812 1.175781 -3.832031 0.9375 -4.09375 C 0.707031 -4.363281 0.59375 -4.726562 0.59375 -5.1875 C 0.59375 -5.570312 0.691406 -5.914062 0.890625 -6.21875 C 1.097656 -6.53125 1.40625 -6.773438 1.8125 -6.953125 C 2.21875 -7.140625 2.722656 -7.234375 3.328125 -7.234375 C 3.753906 -7.234375 4.171875 -7.175781 4.578125 -7.0625 C 4.984375 -6.957031 5.332031 -6.800781 5.625 -6.59375 L 5.296875 -5.78125 C 4.992188 -5.96875 4.671875 -6.109375 4.328125 -6.203125 C 3.992188 -6.304688 3.660156 -6.359375 3.328125 -6.359375 C 2.753906 -6.359375 2.320312 -6.253906 2.03125 -6.046875 C 1.738281 -5.835938 1.59375 -5.566406 1.59375 -5.234375 C 1.59375 -4.984375 1.671875 -4.78125 1.828125 -4.625 C 1.992188 -4.476562 2.195312 -4.363281 2.4375 -4.28125 C 2.6875 -4.195312 3.019531 -4.101562 3.4375 -4 C 3.96875 -3.875 4.394531 -3.742188 4.71875 -3.609375 C 5.050781 -3.484375 5.332031 -3.285156 5.5625 -3.015625 C 5.800781 -2.753906 5.921875 -2.398438 5.921875 -1.953125 C 5.921875 -1.578125 5.816406 -1.234375 5.609375 -0.921875 C 5.410156 -0.609375 5.101562 -0.363281 4.6875 -0.1875 C 4.269531 -0.0078125 3.757812 0.078125 3.15625 0.078125 Z M 3.15625 0.078125 "/></g></g></g><g fill="#ffffff" fill-opacity="1"><g transform="translate(233.098608, 69.666379)"><g><path d="M 2.5 -6.265625 L 0.046875 -6.265625 L 0.046875 -7.15625 L 5.953125 -7.15625 L 5.953125 -6.265625 L 3.5 -6.265625 L 3.5 0 L 2.5 0 Z M 2.5 -6.265625 "/></g></g></g><g fill="#ffffff" fill-opacity="1"><g transform="translate(241.420089, 69.666379)"><g><path d="M 5.859375 0 L 4.3125 -2.203125 C 4.125 -2.179688 3.972656 -2.171875 3.859375 -2.171875 L 2.09375 -2.171875 L 2.09375 0 L 1.078125 0 L 1.078125 -7.15625 L 3.859375 -7.15625 C 4.785156 -7.15625 5.515625 -6.929688 6.046875 -6.484375 C 6.578125 -6.046875 6.84375 -5.4375 6.84375 -4.65625 C 6.84375 -4.101562 6.707031 -3.632812 6.4375 -3.25 C 6.164062 -2.863281 5.773438 -2.582031 5.265625 -2.40625 L 6.96875 0 Z M 3.828125 -3.046875 C 4.472656 -3.046875 4.96875 -3.1875 5.3125 -3.46875 C 5.65625 -3.75 5.828125 -4.144531 5.828125 -4.65625 C 5.828125 -5.175781 5.65625 -5.570312 5.3125 -5.84375 C 4.96875 -6.125 4.472656 -6.265625 3.828125 -6.265625 L 2.09375 -6.265625 L 2.09375 -3.046875 Z M 3.828125 -3.046875 "/></g></g></g><g fill="#ffffff" fill-opacity="1"><g transform="translate(251.170741, 69.666379)"><g><path d="M 4.296875 0.078125 C 3.578125 0.078125 2.925781 -0.078125 2.34375 -0.390625 C 1.769531 -0.710938 1.316406 -1.148438 0.984375 -1.703125 C 0.648438 -2.265625 0.484375 -2.890625 0.484375 -3.578125 C 0.484375 -4.265625 0.648438 -4.882812 0.984375 -5.4375 C 1.316406 -6 1.769531 -6.4375 2.34375 -6.75 C 2.925781 -7.070312 3.578125 -7.234375 4.296875 -7.234375 C 5.015625 -7.234375 5.660156 -7.070312 6.234375 -6.75 C 6.816406 -6.4375 7.269531 -6.003906 7.59375 -5.453125 C 7.925781 -4.898438 8.09375 -4.273438 8.09375 -3.578125 C 8.09375 -2.878906 7.925781 -2.253906 7.59375 -1.703125 C 7.269531 -1.148438 6.816406 -0.710938 6.234375 -0.390625 C 5.660156 -0.078125 5.015625 0.078125 4.296875 0.078125 Z M 4.296875 -0.828125 C 4.828125 -0.828125 5.300781 -0.945312 5.71875 -1.1875 C 6.132812 -1.425781 6.460938 -1.753906 6.703125 -2.171875 C 6.953125 -2.585938 7.078125 -3.054688 7.078125 -3.578125 C 7.078125 -4.097656 6.953125 -4.566406 6.703125 -4.984375 C 6.460938 -5.398438 6.132812 -5.726562 5.71875 -5.96875 C 5.300781 -6.207031 4.828125 -6.328125 4.296875 -6.328125 C 3.773438 -6.328125 3.300781 -6.207031 2.875 -5.96875 C 2.445312 -5.726562 2.113281 -5.398438 1.875 -4.984375 C 1.632812 -4.566406 1.515625 -4.097656 1.515625 -3.578125 C 1.515625 -3.054688 1.632812 -2.585938 1.875 -2.171875 C 2.113281 -1.753906 2.445312 -1.425781 2.875 -1.1875 C 3.300781 -0.945312 3.773438 -0.828125 4.296875 -0.828125 Z M 4.296875 -0.828125 "/></g></g></g><g fill="#ffffff" fill-opacity="1"><g transform="translate(262.074937, 69.666379)"><g/></g></g><g fill="#ffffff" fill-opacity="1"><g transform="translate(267.150155, 69.666379)"><g><path d="M 4.03125 0.078125 C 3.082031 0.078125 2.34375 -0.191406 1.8125 -0.734375 C 1.28125 -1.273438 1.015625 -2.0625 1.015625 -3.09375 L 1.015625 -7.15625 L 2.03125 -7.15625 L 2.03125 -3.125 C 2.03125 -1.59375 2.703125 -0.828125 4.046875 -0.828125 C 4.703125 -0.828125 5.203125 -1.015625 5.546875 -1.390625 C 5.890625 -1.773438 6.0625 -2.351562 6.0625 -3.125 L 6.0625 -7.15625 L 7.0625 -7.15625 L 7.0625 -3.09375 C 7.0625 -2.0625 6.796875 -1.273438 6.265625 -0.734375 C 5.734375 -0.191406 4.988281 0.078125 4.03125 0.078125 Z M 4.671875 -9.0625 L 5.90625 -9.0625 L 4.203125 -7.734375 L 3.28125 -7.734375 Z M 4.671875 -9.0625 "/></g></g></g><g fill="#ffffff" fill-opacity="1"><g transform="translate(277.554138, 69.666379)"><g><path d="M 7.21875 -7.15625 L 7.21875 0 L 6.390625 0 L 2.09375 -5.328125 L 2.09375 0 L 1.078125 0 L 1.078125 -7.15625 L 1.90625 -7.15625 L 6.203125 -1.8125 L 6.203125 -7.15625 Z M 7.21875 -7.15625 "/></g></g></g><g fill="#ffffff" fill-opacity="1"><g transform="translate(288.172504, 69.666379)"><g><path d="M 1.078125 -7.15625 L 2.09375 -7.15625 L 2.09375 0 L 1.078125 0 Z M 1.078125 -7.15625 "/></g></g></g><g fill="#ffffff" fill-opacity="1"><g transform="translate(293.666264, 69.666379)"><g><path d="M 4.265625 0.078125 C 3.554688 0.078125 2.910156 -0.078125 2.328125 -0.390625 C 1.753906 -0.710938 1.300781 -1.148438 0.96875 -1.703125 C 0.644531 -2.253906 0.484375 -2.878906 0.484375 -3.578125 C 0.484375 -4.273438 0.644531 -4.898438 0.96875 -5.453125 C 1.300781 -6.003906 1.753906 -6.4375 2.328125 -6.75 C 2.910156 -7.070312 3.5625 -7.234375 4.28125 -7.234375 C 4.84375 -7.234375 5.351562 -7.140625 5.8125 -6.953125 C 6.28125 -6.765625 6.675781 -6.488281 7 -6.125 L 6.328125 -5.484375 C 5.796875 -6.046875 5.128906 -6.328125 4.328125 -6.328125 C 3.796875 -6.328125 3.3125 -6.207031 2.875 -5.96875 C 2.445312 -5.726562 2.113281 -5.398438 1.875 -4.984375 C 1.632812 -4.566406 1.515625 -4.097656 1.515625 -3.578125 C 1.515625 -3.054688 1.632812 -2.585938 1.875 -2.171875 C 2.113281 -1.753906 2.445312 -1.425781 2.875 -1.1875 C 3.3125 -0.945312 3.796875 -0.828125 4.328125 -0.828125 C 5.117188 -0.828125 5.785156 -1.113281 6.328125 -1.6875 L 7 -1.046875 C 6.675781 -0.671875 6.28125 -0.390625 5.8125 -0.203125 C 5.34375 -0.015625 4.828125 0.078125 4.265625 0.078125 Z M 4.265625 0.078125 "/></g></g></g><g fill="#ffffff" fill-opacity="1"><g transform="translate(303.376083, 69.666379)"><g><path d="M 4.296875 0.078125 C 3.578125 0.078125 2.925781 -0.078125 2.34375 -0.390625 C 1.769531 -0.710938 1.316406 -1.148438 0.984375 -1.703125 C 0.648438 -2.265625 0.484375 -2.890625 0.484375 -3.578125 C 0.484375 -4.265625 0.648438 -4.882812 0.984375 -5.4375 C 1.316406 -6 1.769531 -6.4375 2.34375 -6.75 C 2.925781 -7.070312 3.578125 -7.234375 4.296875 -7.234375 C 5.015625 -7.234375 5.660156 -7.070312 6.234375 -6.75 C 6.816406 -6.4375 7.269531 -6.003906 7.59375 -5.453125 C 7.925781 -4.898438 8.09375 -4.273438 8.09375 -3.578125 C 8.09375 -2.878906 7.925781 -2.253906 7.59375 -1.703125 C 7.269531 -1.148438 6.816406 -0.710938 6.234375 -0.390625 C 5.660156 -0.078125 5.015625 0.078125 4.296875 0.078125 Z M 4.296875 -0.828125 C 4.828125 -0.828125 5.300781 -0.945312 5.71875 -1.1875 C 6.132812 -1.425781 6.460938 -1.753906 6.703125 -2.171875 C 6.953125 -2.585938 7.078125 -3.054688 7.078125 -3.578125 C 7.078125 -4.097656 6.953125 -4.566406 6.703125 -4.984375 C 6.460938 -5.398438 6.132812 -5.726562 5.71875 -5.96875 C 5.300781 -6.207031 4.828125 -6.328125 4.296875 -6.328125 C 3.773438 -6.328125 3.300781 -6.207031 2.875 -5.96875 C 2.445312 -5.726562 2.113281 -5.398438 1.875 -4.984375 C 1.632812 -4.566406 1.515625 -4.097656 1.515625 -3.578125 C 1.515625 -3.054688 1.632812 -2.585938 1.875 -2.171875 C 2.113281 -1.753906 2.445312 -1.425781 2.875 -1.1875 C 3.300781 -0.945312 3.773438 -0.828125 4.296875 -0.828125 Z M 4.296875 -0.828125 "/></g></g></g><path stroke-linecap="butt" transform="matrix(0.0848287, -0.745187, 0.745187, 0.0848287, 743.532855, 84.739721)" fill="none" stroke-linejoin="miter" d="M -0.000192831 8.500346 L 116.198356 8.498333 " stroke="#d7e9f8" stroke-width="17" stroke-opacity="1" stroke-miterlimit="4"/><path stroke-linecap="butt" transform="matrix(0.0848287, -0.745187, 0.745187, 0.0848287, 732.421383, 90.298056)" fill="none" stroke-linejoin="miter" d="M -0.000808676 8.497987 L 116.198329 8.501149 " stroke="#d7e9f8" stroke-width="17" stroke-opacity="1" stroke-miterlimit="4"/><path stroke-linecap="butt" transform="matrix(0.0848287, -0.745187, 0.745187, 0.0848287, 754.94651, 88.553868)" fill="none" stroke-linejoin="miter" d="M 0.00205047 8.500637 L 116.200599 8.498624 " stroke="#d7e9f8" stroke-width="17" stroke-opacity="1" stroke-miterlimit="4"/><path stroke-linecap="butt" transform="matrix(0.0848287, -0.745187, 0.745187, 0.0848287, 766.20911, 90.683332)" fill="none" stroke-linejoin="miter" d="M -0.00251745 8.499975 L 116.196031 8.497962 " stroke="#d7e9f8" stroke-width="17" stroke-opacity="1" stroke-miterlimit="4"/></svg>