<svg xmlns="http://www.w3.org/2000/svg" xmlns:xlink="http://www.w3.org/1999/xlink" width="1440" zoomAndPan="magnify" viewBox="0 0 1080 89.999999" height="120" preserveAspectRatio="xMidYMid meet" version="1.0"><defs><g/><clipPath id="1443f67a94"><path d="M 584.558594 37.671875 L 587.882812 37.671875 L 587.882812 40.925781 L 584.558594 40.925781 Z M 584.558594 37.671875 " clip-rule="nonzero"/></clipPath><clipPath id="ab2c6f7653"><path d="M 0 12.675781 L 754.949219 12.675781 L 754.949219 83.277344 L 0 83.277344 Z M 0 12.675781 " clip-rule="nonzero"/></clipPath><clipPath id="f758d28383"><path d="M 735.179688 12.621094 L 1080 12.621094 L 1080 83.027344 L 735.179688 83.027344 Z M 735.179688 12.621094 " clip-rule="nonzero"/></clipPath></defs><rect x="-108" width="1296" fill="#ffffff" y="-9" height="107.999999" fill-opacity="1"/><rect x="-108" width="1296" fill="#ffffff" y="-9" height="107.999999" fill-opacity="1"/><g clip-path="url(#1443f67a94)"><path fill="#d7e9f8" d="M 584.558594 37.671875 L 587.882812 37.671875 L 587.882812 40.925781 L 584.558594 40.925781 Z M 584.558594 37.671875 " fill-opacity="1" fill-rule="nonzero"/></g><rect x="-108" width="1296" fill="#d7e9f8" y="-9" height="107.999999" fill-opacity="1"/><g clip-path="url(#ab2c6f7653)"><path fill="#13294b" d="M 0 12.675781 L 754.949219 12.675781 L 754.949219 83.277344 L 0 83.277344 Z M 0 12.675781 " fill-opacity="1" fill-rule="nonzero"/></g><path stroke-linecap="round" transform="matrix(0.75, 0, 0, 0.75, 156.682644, 65.138437)" fill="none" stroke-linejoin="miter" d="M 1.501266 1.497709 L 24.386684 1.497709 " stroke="#d7e9f8" stroke-width="3" stroke-opacity="1" stroke-miterlimit="4"/><g clip-path="url(#f758d28383)"><path fill="#ffffff" d="M 735.179688 12.621094 L 1094.261719 12.621094 L 1094.261719 83.027344 L 735.179688 83.027344 Z M 735.179688 12.621094 " fill-opacity="1" fill-rule="nonzero"/></g><path stroke-linecap="butt" transform="matrix(0.0848287, -0.745187, 0.745187, 0.0848287, 721.309888, 88.058714)" fill="none" stroke-linejoin="miter" d="M -0.00189348 8.500956 L 116.196655 8.498943 " stroke="#d7e9f8" stroke-width="17" stroke-opacity="1" stroke-miterlimit="4"/><g fill="#ffffff" fill-opacity="1"><g transform="translate(140.182645, 53.498419)"><g><path d="M 11.65625 0 L 6.546875 -16.640625 L 6.40625 -16.640625 C 6.59375 -13.253906 6.6875 -11 6.6875 -9.875 L 6.6875 0 L 2.671875 0 L 2.671875 -21.21875 L 8.796875 -21.21875 L 13.8125 -4.984375 L 13.90625 -4.984375 L 19.234375 -21.21875 L 25.34375 -21.21875 L 25.34375 0 L 21.15625 0 L 21.15625 -10.046875 C 21.15625 -10.515625 21.160156 -11.054688 21.171875 -11.671875 C 21.191406 -12.296875 21.257812 -13.941406 21.375 -16.609375 L 21.25 -16.609375 L 15.78125 0 Z M 11.65625 0 "/></g></g></g><g fill="#ffffff" fill-opacity="1"><g transform="translate(168.199659, 53.498419)"><g><path d="M 14.890625 0 L 2.671875 0 L 2.671875 -21.21875 L 14.890625 -21.21875 L 14.890625 -17.53125 L 7.171875 -17.53125 L 7.171875 -12.875 L 14.34375 -12.875 L 14.34375 -9.1875 L 7.171875 -9.1875 L 7.171875 -3.71875 L 14.890625 -3.71875 Z M 14.890625 0 "/></g></g></g><g fill="#ffffff" fill-opacity="1"><g transform="translate(184.841562, 53.498419)"><g><path d="M 21.484375 0 L 15.78125 0 L 6.546875 -16.046875 L 6.40625 -16.046875 C 6.59375 -13.210938 6.6875 -11.191406 6.6875 -9.984375 L 6.6875 0 L 2.671875 0 L 2.671875 -21.21875 L 8.34375 -21.21875 L 17.5625 -5.328125 L 17.65625 -5.328125 C 17.507812 -8.085938 17.4375 -10.035156 17.4375 -11.171875 L 17.4375 -21.21875 L 21.484375 -21.21875 Z M 21.484375 0 "/></g></g></g><g fill="#ffffff" fill-opacity="1"><g transform="translate(208.999164, 53.498419)"><g><path d="M 19.9375 -21.21875 L 19.9375 -7.484375 C 19.9375 -5.921875 19.582031 -4.546875 18.875 -3.359375 C 18.175781 -2.179688 17.164062 -1.273438 15.84375 -0.640625 C 14.519531 -0.015625 12.953125 0.296875 11.140625 0.296875 C 8.410156 0.296875 6.289062 -0.398438 4.78125 -1.796875 C 3.28125 -3.203125 2.53125 -5.117188 2.53125 -7.546875 L 2.53125 -21.21875 L 7.015625 -21.21875 L 7.015625 -8.234375 C 7.015625 -6.597656 7.34375 -5.394531 8 -4.625 C 8.65625 -3.863281 9.742188 -3.484375 11.265625 -3.484375 C 12.734375 -3.484375 13.796875 -3.867188 14.453125 -4.640625 C 15.117188 -5.410156 15.453125 -6.613281 15.453125 -8.25 L 15.453125 -21.21875 Z M 19.9375 -21.21875 "/></g></g></g><g fill="#ffffff" fill-opacity="1"><g transform="translate(184.355576, 69.666379)"><g><path d="M 1.078125 -7.15625 L 4.09375 -7.15625 C 4.84375 -7.15625 5.507812 -7.003906 6.09375 -6.703125 C 6.6875 -6.398438 7.144531 -5.976562 7.46875 -5.4375 C 7.789062 -4.894531 7.953125 -4.273438 7.953125 -3.578125 C 7.953125 -2.878906 7.789062 -2.257812 7.46875 -1.71875 C 7.144531 -1.175781 6.6875 -0.753906 6.09375 -0.453125 C 5.507812 -0.148438 4.84375 0 4.09375 0 L 1.078125 0 Z M 4.03125 -0.890625 C 4.601562 -0.890625 5.109375 -1 5.546875 -1.21875 C 5.992188 -1.445312 6.332031 -1.765625 6.5625 -2.171875 C 6.800781 -2.578125 6.921875 -3.046875 6.921875 -3.578125 C 6.921875 -4.109375 6.800781 -4.578125 6.5625 -4.984375 C 6.332031 -5.390625 5.992188 -5.703125 5.546875 -5.921875 C 5.109375 -6.148438 4.601562 -6.265625 4.03125 -6.265625 L 2.09375 -6.265625 L 2.09375 -0.890625 Z M 4.03125 -0.890625 "/></g></g></g><g fill="#ffffff" fill-opacity="1"><g transform="translate(195.116856, 69.666379)"><g><path d="M 6.265625 -0.890625 L 6.265625 0 L 1.078125 0 L 1.078125 -7.15625 L 6.125 -7.15625 L 6.125 -6.265625 L 2.09375 -6.265625 L 2.09375 -4.0625 L 5.6875 -4.0625 L 5.6875 -3.203125 L 2.09375 -3.203125 L 2.09375 -0.890625 Z M 6.265625 -0.890625 "/></g></g></g><g fill="#ffffff" fill-opacity="1"><g transform="translate(204.285623, 69.666379)"><g/></g></g><g fill="#ffffff" fill-opacity="1"><g transform="translate(209.360838, 69.666379)"><g><path d="M 7.21875 -7.15625 L 7.21875 0 L 6.390625 0 L 2.09375 -5.328125 L 2.09375 0 L 1.078125 0 L 1.078125 -7.15625 L 1.90625 -7.15625 L 6.203125 -1.8125 L 6.203125 -7.15625 Z M 7.21875 -7.15625 "/></g></g></g><g fill="#ffffff" fill-opacity="1"><g transform="translate(219.979204, 69.666379)"><g><path d="M 5.625 -1.78125 L 1.828125 -1.78125 L 1.046875 0 L -0.015625 0 L 3.234375 -7.15625 L 4.234375 -7.15625 L 7.484375 0 L 6.421875 0 Z M 5.265625 -2.609375 L 3.734375 -6.109375 L 2.1875 -2.609375 Z M 5.265625 -2.609375 "/></g></g></g><g fill="#ffffff" fill-opacity="1"><g transform="translate(229.780892, 69.666379)"><g><path d="M 7.28125 -7.15625 L 4.15625 0 L 3.140625 0 L -0.015625 -7.15625 L 1.09375 -7.15625 L 3.671875 -1.28125 L 6.265625 -7.15625 Z M 7.28125 -7.15625 "/></g></g></g><g fill="#ffffff" fill-opacity="1"><g transform="translate(239.378415, 69.666379)"><g><path d="M 6.265625 -0.890625 L 6.265625 0 L 1.078125 0 L 1.078125 -7.15625 L 6.125 -7.15625 L 6.125 -6.265625 L 2.09375 -6.265625 L 2.09375 -4.0625 L 5.6875 -4.0625 L 5.6875 -3.203125 L 2.09375 -3.203125 L 2.09375 -0.890625 Z M 6.265625 -0.890625 "/></g></g></g><g fill="#ffffff" fill-opacity="1"><g transform="translate(248.547184, 69.666379)"><g><path d="M 6.03125 -3.625 L 7.015625 -3.625 L 7.015625 -0.828125 C 6.660156 -0.535156 6.242188 -0.3125 5.765625 -0.15625 C 5.296875 0 4.804688 0.078125 4.296875 0.078125 C 3.578125 0.078125 2.925781 -0.078125 2.34375 -0.390625 C 1.769531 -0.710938 1.316406 -1.148438 0.984375 -1.703125 C 0.648438 -2.253906 0.484375 -2.878906 0.484375 -3.578125 C 0.484375 -4.273438 0.648438 -4.898438 0.984375 -5.453125 C 1.316406 -6.015625 1.773438 -6.453125 2.359375 -6.765625 C 2.941406 -7.078125 3.597656 -7.234375 4.328125 -7.234375 C 4.898438 -7.234375 5.414062 -7.140625 5.875 -6.953125 C 6.34375 -6.765625 6.742188 -6.488281 7.078125 -6.125 L 6.4375 -5.5 C 5.863281 -6.050781 5.171875 -6.328125 4.359375 -6.328125 C 3.816406 -6.328125 3.328125 -6.207031 2.890625 -5.96875 C 2.460938 -5.738281 2.125 -5.410156 1.875 -4.984375 C 1.632812 -4.566406 1.515625 -4.097656 1.515625 -3.578125 C 1.515625 -3.054688 1.632812 -2.585938 1.875 -2.171875 C 2.125 -1.753906 2.460938 -1.425781 2.890625 -1.1875 C 3.328125 -0.945312 3.816406 -0.828125 4.359375 -0.828125 C 4.992188 -0.828125 5.550781 -0.976562 6.03125 -1.28125 Z M 6.03125 -3.625 "/></g></g></g><g fill="#ffffff" fill-opacity="1"><g transform="translate(258.757211, 69.666379)"><g><path d="M 5.625 -1.78125 L 1.828125 -1.78125 L 1.046875 0 L -0.015625 0 L 3.234375 -7.15625 L 4.234375 -7.15625 L 7.484375 0 L 6.421875 0 Z M 5.265625 -2.609375 L 3.734375 -6.109375 L 2.1875 -2.609375 Z M 5.265625 -2.609375 "/></g></g></g><g fill="#ffffff" fill-opacity="1"><g transform="translate(268.558899, 69.666379)"><g><path d="M 4.265625 0.078125 C 3.554688 0.078125 2.910156 -0.078125 2.328125 -0.390625 C 1.753906 -0.710938 1.300781 -1.148438 0.96875 -1.703125 C 0.644531 -2.253906 0.484375 -2.878906 0.484375 -3.578125 C 0.484375 -4.273438 0.644531 -4.898438 0.96875 -5.453125 C 1.300781 -6.003906 1.753906 -6.4375 2.328125 -6.75 C 2.910156 -7.070312 3.5625 -7.234375 4.28125 -7.234375 C 4.84375 -7.234375 5.351562 -7.140625 5.8125 -6.953125 C 6.28125 -6.765625 6.675781 -6.488281 7 -6.125 L 6.328125 -5.484375 C 5.796875 -6.046875 5.128906 -6.328125 4.328125 -6.328125 C 3.796875 -6.328125 3.3125 -6.207031 2.875 -5.96875 C 2.445312 -5.726562 2.113281 -5.398438 1.875 -4.984375 C 1.632812 -4.566406 1.515625 -4.097656 1.515625 -3.578125 C 1.515625 -3.054688 1.632812 -2.585938 1.875 -2.171875 C 2.113281 -1.753906 2.445312 -1.425781 2.875 -1.1875 C 3.3125 -0.945312 3.796875 -0.828125 4.328125 -0.828125 C 5.117188 -0.828125 5.785156 -1.113281 6.328125 -1.6875 L 7 -1.046875 C 6.675781 -0.671875 6.28125 -0.390625 5.8125 -0.203125 C 5.34375 -0.015625 4.828125 0.078125 4.265625 0.078125 Z M 3.84375 2.28125 C 3.488281 2.28125 3.1875 2.207031 2.9375 2.0625 L 3.15625 1.5625 C 3.363281 1.675781 3.59375 1.734375 3.84375 1.734375 C 4.226562 1.734375 4.421875 1.597656 4.421875 1.328125 C 4.421875 1.203125 4.375 1.101562 4.28125 1.03125 C 4.1875 0.96875 4.039062 0.9375 3.84375 0.9375 L 3.5625 0.9375 L 3.8125 -0.078125 L 4.375 -0.078125 L 4.234375 0.515625 C 4.515625 0.535156 4.734375 0.625 4.890625 0.78125 C 5.046875 0.9375 5.125 1.128906 5.125 1.359375 C 5.125 1.640625 5.003906 1.863281 4.765625 2.03125 C 4.535156 2.195312 4.226562 2.28125 3.84375 2.28125 Z M 3.84375 2.28125 "/></g></g></g><g fill="#ffffff" fill-opacity="1"><g transform="translate(278.268713, 69.666379)"><g><path d="M 5.625 -1.78125 L 1.828125 -1.78125 L 1.046875 0 L -0.015625 0 L 3.234375 -7.15625 L 4.234375 -7.15625 L 7.484375 0 L 6.421875 0 Z M 5.265625 -2.609375 L 3.734375 -6.109375 L 2.1875 -2.609375 Z M 4.46875 -7.765625 C 4.300781 -7.765625 4.15625 -7.796875 4.03125 -7.859375 C 3.914062 -7.929688 3.769531 -8.035156 3.59375 -8.171875 C 3.488281 -8.265625 3.398438 -8.332031 3.328125 -8.375 C 3.253906 -8.425781 3.179688 -8.453125 3.109375 -8.453125 C 2.953125 -8.453125 2.828125 -8.394531 2.734375 -8.28125 C 2.640625 -8.164062 2.585938 -8.007812 2.578125 -7.8125 L 2.03125 -7.8125 C 2.039062 -8.195312 2.132812 -8.5 2.3125 -8.71875 C 2.5 -8.945312 2.738281 -9.0625 3.03125 -9.0625 C 3.195312 -9.0625 3.34375 -9.023438 3.46875 -8.953125 C 3.59375 -8.878906 3.738281 -8.773438 3.90625 -8.640625 C 4.019531 -8.546875 4.109375 -8.476562 4.171875 -8.4375 C 4.242188 -8.394531 4.316406 -8.375 4.390625 -8.375 C 4.535156 -8.375 4.65625 -8.425781 4.75 -8.53125 C 4.851562 -8.644531 4.90625 -8.796875 4.90625 -8.984375 L 5.46875 -8.984375 C 5.445312 -8.617188 5.347656 -8.320312 5.171875 -8.09375 C 4.992188 -7.875 4.757812 -7.765625 4.46875 -7.765625 Z M 4.46875 -7.765625 "/></g></g></g><g fill="#ffffff" fill-opacity="1"><g transform="translate(288.0704, 69.666379)"><g><path d="M 4.296875 0.078125 C 3.578125 0.078125 2.925781 -0.078125 2.34375 -0.390625 C 1.769531 -0.710938 1.316406 -1.148438 0.984375 -1.703125 C 0.648438 -2.265625 0.484375 -2.890625 0.484375 -3.578125 C 0.484375 -4.265625 0.648438 -4.882812 0.984375 -5.4375 C 1.316406 -6 1.769531 -6.4375 2.34375 -6.75 C 2.925781 -7.070312 3.578125 -7.234375 4.296875 -7.234375 C 5.015625 -7.234375 5.660156 -7.070312 6.234375 -6.75 C 6.816406 -6.4375 7.269531 -6.003906 7.59375 -5.453125 C 7.925781 -4.898438 8.09375 -4.273438 8.09375 -3.578125 C 8.09375 -2.878906 7.925781 -2.253906 7.59375 -1.703125 C 7.269531 -1.148438 6.816406 -0.710938 6.234375 -0.390625 C 5.660156 -0.078125 5.015625 0.078125 4.296875 0.078125 Z M 4.296875 -0.828125 C 4.828125 -0.828125 5.300781 -0.945312 5.71875 -1.1875 C 6.132812 -1.425781 6.460938 -1.753906 6.703125 -2.171875 C 6.953125 -2.585938 7.078125 -3.054688 7.078125 -3.578125 C 7.078125 -4.097656 6.953125 -4.566406 6.703125 -4.984375 C 6.460938 -5.398438 6.132812 -5.726562 5.71875 -5.96875 C 5.300781 -6.207031 4.828125 -6.328125 4.296875 -6.328125 C 3.773438 -6.328125 3.300781 -6.207031 2.875 -5.96875 C 2.445312 -5.726562 2.113281 -5.398438 1.875 -4.984375 C 1.632812 -4.566406 1.515625 -4.097656 1.515625 -3.578125 C 1.515625 -3.054688 1.632812 -2.585938 1.875 -2.171875 C 2.113281 -1.753906 2.445312 -1.425781 2.875 -1.1875 C 3.300781 -0.945312 3.773438 -0.828125 4.296875 -0.828125 Z M 4.296875 -0.828125 "/></g></g></g><path stroke-linecap="butt" transform="matrix(0.0848287, -0.745187, 0.745187, 0.0848287, 743.532855, 84.739721)" fill="none" stroke-linejoin="miter" d="M -0.000192831 8.500346 L 116.198356 8.498333 " stroke="#d7e9f8" stroke-width="17" stroke-opacity="1" stroke-miterlimit="4"/><path stroke-linecap="butt" transform="matrix(0.0848287, -0.745187, 0.745187, 0.0848287, 732.421383, 90.298056)" fill="none" stroke-linejoin="miter" d="M -0.000808676 8.497987 L 116.198329 8.501149 " stroke="#d7e9f8" stroke-width="17" stroke-opacity="1" stroke-miterlimit="4"/><path stroke-linecap="butt" transform="matrix(0.0848287, -0.745187, 0.745187, 0.0848287, 754.94651, 88.553868)" fill="none" stroke-linejoin="miter" d="M 0.00205047 8.500637 L 116.200599 8.498624 " stroke="#d7e9f8" stroke-width="17" stroke-opacity="1" stroke-miterlimit="4"/><path stroke-linecap="butt" transform="matrix(0.0848287, -0.745187, 0.745187, 0.0848287, 766.20911, 90.683332)" fill="none" stroke-linejoin="miter" d="M -0.00251745 8.499975 L 116.196031 8.497962 " stroke="#d7e9f8" stroke-width="17" stroke-opacity="1" stroke-miterlimit="4"/></svg>